<svg width="60" height="60" viewBox="0 0 60 60" fill="none" xmlns="http://www.w3.org/2000/svg">
<path d="M30 5C24.7301 4.99974 19.6731 7.0794 15.9281 10.787C12.1831 14.4946 10.0527 19.5304 10 24.8C10 38.5 27.625 53.75 28.375 54.4C28.8278 54.7873 29.4041 55.0002 30 55.0002C30.5959 55.0002 31.1722 54.7873 31.625 54.4C32.5 53.75 50 38.5 50 24.8C49.9473 19.5304 47.8169 14.4946 44.0719 10.787C40.3269 7.0794 35.2699 4.99974 30 5Z" fill="#CE5434"/>
<path d="M29.4375 30.6298V34.0156H30.7322C31.4187 34.0715 32.1051 33.9066 32.6742 33.5489C32.8657 33.3849 33.016 33.1844 33.1147 32.9615C33.2135 32.7386 33.2583 32.4986 33.2461 32.2581C33.2457 32.0397 33.1944 31.8239 33.0958 31.6252C32.9972 31.4265 32.8534 31.2496 32.6742 31.1064C32.103 30.7359 31.4061 30.5667 30.7106 30.6298H29.4375ZM32.1024 39H22.5V18H39.2557L38.0689 23.2525H29.4375V25.9432H32.1024C33.192 25.9377 34.2785 26.051 35.3392 26.2808C36.3157 26.4513 37.2444 26.8026 38.0689 27.3135C38.8284 27.8302 39.4365 28.5126 39.8383 29.2993C40.3016 30.233 40.5267 31.2519 40.4964 32.278C40.5315 33.3847 40.3071 34.4853 39.8383 35.5049C39.4409 36.3161 38.8333 37.0253 38.0689 37.5702C37.2806 38.1111 36.3756 38.4903 35.4147 38.6822C34.3515 38.8957 33.2662 39.0022 32.1779 39" fill="#912F46"/>
<path d="M22.5 35.9503V15H37.8673L36.7286 20.24H28.8766V22.8848H31.3223C32.3388 22.8759 33.3527 22.989 34.3423 23.2216C35.2163 23.4221 36.0412 23.796 36.7682 24.3211C37.4719 24.8323 38.0341 25.514 38.402 26.3023C38.8227 27.2349 39.0259 28.2511 38.9961 29.2739C39.0314 30.3773 38.8288 31.4753 38.402 32.4932C38.0397 33.3123 37.478 34.0275 36.7682 34.5734C36.0483 35.1128 35.221 35.4911 34.3423 35.6828C33.3503 35.8988 32.3376 36.0051 31.3223 35.9998L22.5 35.9503ZM28.8766 27.5999V30.9777H30.0351C30.6719 31.0399 31.3102 30.875 31.8372 30.5121C32.0145 30.3497 32.1535 30.15 32.2443 29.9273C32.335 29.7046 32.3752 29.4645 32.362 29.2244C32.3629 29.0063 32.3165 28.7906 32.2259 28.5922C32.1353 28.3938 32.0027 28.2174 31.8372 28.0754C31.3137 27.7041 30.6735 27.5352 30.0351 27.5999H28.8766Z" fill="white"/>
</svg>
