<svg width="60" height="60" viewBox="0 0 60 60" fill="none" xmlns="http://www.w3.org/2000/svg">
<path d="M30 5C24.7301 4.99974 19.6731 7.0794 15.9281 10.787C12.1831 14.4946 10.0527 19.5304 10 24.8C10 38.5 27.625 53.75 28.375 54.4C28.8278 54.7873 29.4041 55.0002 30 55.0002C30.5959 55.0002 31.1722 54.7873 31.625 54.4C32.5 53.75 50 38.5 50 24.8C49.9473 19.5304 47.8169 14.4946 44.0719 10.787C40.3269 7.0794 35.2699 4.99974 30 5Z" fill="#D50032"/>
<path d="M29.2112 17.85V31.5H26.7152V27.6975H23.3417H23.0687L20.5337 31.5H17.8622L20.7872 27.288C19.8382 26.937 19.1037 26.3845 18.5837 25.6305C18.0767 24.8635 17.8232 23.9405 17.8232 22.8615C17.8232 21.8215 18.0572 20.9245 18.5252 20.1705C18.9932 19.4165 19.6562 18.8445 20.5142 18.4545C21.3722 18.0515 22.3797 17.85 23.5367 17.85H29.2112ZM23.6147 19.995C22.5747 19.995 21.7752 20.2355 21.2162 20.7165C20.6702 21.1975 20.3972 21.8995 20.3972 22.8225C20.3972 23.7195 20.6637 24.415 21.1967 24.909C21.7297 25.39 22.5032 25.6305 23.5172 25.6305H26.7152V19.995H23.6147Z" fill="white"/>
<path d="M37.0599 20.97C38.0739 20.97 38.9774 21.191 39.7704 21.633C40.5764 22.075 41.2069 22.699 41.6619 23.505C42.1169 24.311 42.3444 25.2405 42.3444 26.2935C42.3444 27.3465 42.1169 28.2825 41.6619 29.1015C41.2069 29.9075 40.5764 30.5315 39.7704 30.9735C38.9774 31.4155 38.0739 31.6365 37.0599 31.6365C35.6559 31.6365 34.5444 31.1685 33.7254 30.2325V35.283H31.2879V21.087H33.6084V22.452C34.0114 21.958 34.5054 21.5875 35.0904 21.3405C35.6884 21.0935 36.3449 20.97 37.0599 20.97ZM36.7869 29.55C37.6839 29.55 38.4184 29.251 38.9904 28.653C39.5754 28.055 39.8679 27.2685 39.8679 26.2935C39.8679 25.3185 39.5754 24.532 38.9904 23.934C38.4184 23.336 37.6839 23.037 36.7869 23.037C36.2019 23.037 35.6754 23.1735 35.2074 23.4465C34.7394 23.7065 34.3689 24.0835 34.0959 24.5775C33.8229 25.0715 33.6864 25.6435 33.6864 26.2935C33.6864 26.9435 33.8229 27.5155 34.0959 28.0095C34.3689 28.5035 34.7394 28.887 35.2074 29.16C35.6754 29.42 36.2019 29.55 36.7869 29.55Z" fill="white"/>
</svg>
