<svg width="5" height="8" viewBox="0 0 5 8" fill="none" xmlns="http://www.w3.org/2000/svg">
<path d="M1.358 6.986C1.26467 7.07933 1.15267 7.126 1.022 7.126C0.891333 7.126 0.779333 7.084 0.686 7C0.592667 6.916 0.546 6.80867 0.546 6.678C0.546 6.566 0.592667 6.454 0.686 6.342L3.08 3.85L0.686 1.358C0.592667 1.246 0.546 1.134 0.546 1.022C0.546 0.900666 0.588 0.798 0.672 0.714C0.765333 0.620666 0.877333 0.574 1.008 0.574C1.148 0.574 1.26467 0.620666 1.358 0.714L4.06 3.514C4.16267 3.61667 4.214 3.72867 4.214 3.85C4.214 3.97133 4.16267 4.08333 4.06 4.186L1.358 6.986Z" fill="#212121"/>
</svg>
