<svg width="70" height="18" viewBox="0 0 70 18" fill="none" xmlns="http://www.w3.org/2000/svg">
<path fill-rule="evenodd" clip-rule="evenodd" d="M6.02881 13.9619L6.00823 13.9202L0 10.0714L2.13992 8.49029L3.90947 1.5L6.04938 3.08114L13.1893 2.62344L12.3663 5.16158L15 11.8814H12.3457L12.3251 11.9022L6.83128 16.5L6.02881 13.9619Z" fill="#111111"/>
<path fill-rule="evenodd" clip-rule="evenodd" d="M6.02951 13.8964V13.938L10.1859 11.8576L10.9678 11.8784H12.3258H12.3464L12.2641 11.2543L11.6879 7.23901L12.367 5.17937H12.3464L12.2847 5.15857L7.79906 4.368L6.05009 3.07812V3.09893L5.51511 4.09754L3.8896 7.21821L2.22293 8.44567L2.14062 8.50808L5.37108 11.8576L6.02951 13.8964Z" fill="#AED24A"/>
<path d="M24.1603 13.132C23.4723 13.132 22.8923 13.02 22.4203 12.796C21.9483 12.564 21.5883 12.264 21.3403 11.896C21.1003 11.528 20.9723 11.136 20.9563 10.72C20.9483 10.648 20.9683 10.592 21.0163 10.552C21.0723 10.504 21.1363 10.48 21.2083 10.48H22.3243C22.4123 10.48 22.4843 10.5 22.5403 10.54C22.6043 10.572 22.6523 10.632 22.6843 10.72C22.7643 10.96 22.8763 11.156 23.0203 11.308C23.1723 11.46 23.3443 11.572 23.5363 11.644C23.7363 11.716 23.9443 11.752 24.1603 11.752C24.4483 11.752 24.7083 11.696 24.9403 11.584C25.1803 11.464 25.3723 11.288 25.5163 11.056C25.6603 10.824 25.7323 10.54 25.7323 10.204C25.7323 9.908 25.6643 9.652 25.5283 9.436C25.3923 9.22 25.2043 9.052 24.9643 8.932C24.7323 8.804 24.4643 8.74 24.1603 8.74C23.9363 8.74 23.7523 8.768 23.6083 8.824C23.4643 8.88 23.3403 8.944 23.2363 9.016C23.1403 9.088 23.0523 9.152 22.9723 9.208C22.9003 9.264 22.8163 9.292 22.7203 9.292H21.6163C21.5443 9.292 21.4803 9.268 21.4243 9.22C21.3763 9.164 21.3523 9.1 21.3523 9.028L21.7723 4.924C21.7803 4.82 21.8163 4.74 21.8803 4.684C21.9443 4.628 22.0203 4.6 22.1083 4.6H26.6203C26.7003 4.6 26.7683 4.628 26.8243 4.684C26.8803 4.74 26.9083 4.808 26.9083 4.888V5.692C26.9083 5.772 26.8803 5.84 26.8243 5.896C26.7683 5.952 26.7003 5.98 26.6203 5.98H23.1523L22.9603 7.936C23.1043 7.84 23.2963 7.748 23.5363 7.66C23.7763 7.572 24.1083 7.528 24.5323 7.528C24.9163 7.528 25.2803 7.592 25.6243 7.72C25.9763 7.84 26.2883 8.02 26.5603 8.26C26.8323 8.492 27.0443 8.776 27.1963 9.112C27.3563 9.44 27.4363 9.816 27.4363 10.24C27.4363 10.824 27.3003 11.332 27.0283 11.764C26.7563 12.196 26.3763 12.532 25.8883 12.772C25.4003 13.012 24.8243 13.132 24.1603 13.132ZM32.1839 13C32.1039 13 32.0359 12.972 31.9799 12.916C31.9239 12.86 31.8959 12.792 31.8959 12.712V11.824C31.8959 11.736 31.9239 11.664 31.9799 11.608C32.0359 11.552 32.1039 11.524 32.1839 11.524H32.6279C32.8599 11.524 33.0599 11.476 33.2279 11.38C33.3959 11.276 33.5519 11.116 33.6959 10.9C33.8399 10.676 33.9839 10.392 34.1279 10.048L36.4199 4.828C36.4519 4.748 36.4959 4.692 36.5519 4.66C36.6079 4.62 36.6719 4.6 36.7439 4.6H37.8599C37.9239 4.6 37.9799 4.624 38.0279 4.672C38.0839 4.72 38.1119 4.776 38.1119 4.84C38.1119 4.88 38.1079 4.916 38.0999 4.948C38.0919 4.98 38.0799 5.012 38.0639 5.044L35.6519 10.552C35.4519 10.992 35.2639 11.368 35.0879 11.68C34.9119 11.984 34.7199 12.236 34.5119 12.436C34.3039 12.628 34.0559 12.772 33.7679 12.868C33.4879 12.956 33.1479 13 32.7479 13H32.1839ZM34.0439 10.9L30.8399 4.984C30.8159 4.936 30.8039 4.896 30.8039 4.864C30.8039 4.792 30.8319 4.732 30.8879 4.684C30.9439 4.628 31.0039 4.6 31.0679 4.6H32.2439C32.3159 4.6 32.3759 4.62 32.4239 4.66C32.4799 4.692 32.5239 4.748 32.5559 4.828L34.9199 9.244L34.0439 10.9ZM39.3256 13C39.2456 13 39.1776 12.972 39.1216 12.916C39.0656 12.86 39.0376 12.792 39.0376 12.712V4.9C39.0376 4.812 39.0656 4.74 39.1216 4.684C39.1776 4.628 39.2456 4.6 39.3256 4.6H44.2216C44.3096 4.6 44.3816 4.628 44.4376 4.684C44.4936 4.74 44.5216 4.812 44.5216 4.9V5.74C44.5216 5.82 44.4936 5.888 44.4376 5.944C44.3816 6 44.3096 6.028 44.2216 6.028H40.7056V12.712C40.7056 12.792 40.6776 12.86 40.6216 12.916C40.5736 12.972 40.5056 13 40.4176 13H39.3256ZM51.1092 13C51.0292 13 50.9612 12.972 50.9052 12.916C50.8492 12.86 50.8212 12.792 50.8212 12.712V6.1H48.2172V7.612C48.2172 8.572 48.1652 9.392 48.0612 10.072C47.9652 10.752 47.8052 11.304 47.5812 11.728C47.3572 12.144 47.0532 12.456 46.6692 12.664C46.2852 12.864 45.8052 12.972 45.2292 12.988C45.1492 12.996 45.0772 12.972 45.0132 12.916C44.9572 12.852 44.9292 12.78 44.9292 12.7V11.8C44.9292 11.632 45.0212 11.536 45.2052 11.512C45.4452 11.472 45.6492 11.36 45.8172 11.176C45.9932 10.992 46.1372 10.732 46.2492 10.396C46.3692 10.06 46.4572 9.644 46.5132 9.148C46.5692 8.644 46.5972 8.06 46.5972 7.396V4.888C46.5972 4.808 46.6252 4.74 46.6812 4.684C46.7372 4.628 46.8052 4.6 46.8852 4.6H52.1892C52.2772 4.6 52.3492 4.628 52.4052 4.684C52.4612 4.74 52.4892 4.812 52.4892 4.9V12.712C52.4892 12.792 52.4612 12.86 52.4052 12.916C52.3492 12.972 52.2772 13 52.1892 13H51.1092ZM57.5937 13.12C56.8817 13.12 56.2697 13.004 55.7577 12.772C55.2457 12.532 54.8457 12.168 54.5577 11.68C54.2697 11.184 54.1137 10.568 54.0897 9.832C54.0817 9.488 54.0777 9.148 54.0777 8.812C54.0777 8.476 54.0817 8.132 54.0897 7.78C54.1137 7.052 54.2737 6.444 54.5697 5.956C54.8657 5.468 55.2697 5.1 55.7817 4.852C56.3017 4.604 56.9057 4.48 57.5937 4.48C58.2817 4.48 58.8857 4.604 59.4057 4.852C59.9257 5.1 60.3337 5.468 60.6297 5.956C60.9257 6.444 61.0857 7.052 61.1097 7.78C61.1257 8.132 61.1337 8.476 61.1337 8.812C61.1337 9.148 61.1257 9.488 61.1097 9.832C61.0857 10.568 60.9297 11.184 60.6417 11.68C60.3537 12.168 59.9497 12.532 59.4297 12.772C58.9177 13.004 58.3057 13.12 57.5937 13.12ZM57.5937 11.74C58.1137 11.74 58.5377 11.588 58.8657 11.284C59.1937 10.972 59.3697 10.468 59.3937 9.772C59.4097 9.42 59.4177 9.096 59.4177 8.8C59.4177 8.496 59.4097 8.172 59.3937 7.828C59.3777 7.364 59.2897 6.988 59.1297 6.7C58.9777 6.404 58.7697 6.192 58.5057 6.064C58.2417 5.928 57.9377 5.86 57.5937 5.86C57.2577 5.86 56.9577 5.928 56.6937 6.064C56.4297 6.192 56.2177 6.404 56.0577 6.7C55.9057 6.988 55.8217 7.364 55.8057 7.828C55.7977 8.172 55.7937 8.496 55.7937 8.8C55.7937 9.096 55.7977 9.42 55.8057 9.772C55.8297 10.468 56.0057 10.972 56.3337 11.284C56.6617 11.588 57.0817 11.74 57.5937 11.74ZM62.9974 13C62.9174 13 62.8494 12.972 62.7934 12.916C62.7374 12.86 62.7094 12.792 62.7094 12.712V4.9C62.7094 4.812 62.7374 4.74 62.7934 4.684C62.8494 4.628 62.9174 4.6 62.9974 4.6H66.4774C67.1254 4.6 67.6534 4.7 68.0614 4.9C68.4694 5.092 68.7694 5.36 68.9614 5.704C69.1614 6.048 69.2614 6.448 69.2614 6.904C69.2614 7.208 69.2054 7.476 69.0934 7.708C68.9894 7.932 68.8574 8.116 68.6974 8.26C68.5454 8.404 68.3934 8.516 68.2414 8.596C68.5534 8.74 68.8294 8.98 69.0694 9.316C69.3094 9.652 69.4294 10.052 69.4294 10.516C69.4294 10.996 69.3214 11.424 69.1054 11.8C68.8894 12.176 68.5694 12.472 68.1454 12.688C67.7214 12.896 67.1974 13 66.5734 13H62.9974ZM64.3774 11.728H66.3814C66.8134 11.728 67.1414 11.612 67.3654 11.38C67.5894 11.14 67.7014 10.852 67.7014 10.516C67.7014 10.164 67.5854 9.872 67.3534 9.64C67.1294 9.408 66.8054 9.292 66.3814 9.292H64.3774V11.728ZM64.3774 8.044H66.2614C66.6854 8.044 67.0014 7.944 67.2094 7.744C67.4254 7.536 67.5334 7.268 67.5334 6.94C67.5334 6.604 67.4254 6.34 67.2094 6.148C67.0014 5.956 66.6854 5.86 66.2614 5.86H64.3774V8.044Z" fill="#111111"/>
</svg>
