<svg width="110" height="42" viewBox="0 0 110 42" fill="none" xmlns="http://www.w3.org/2000/svg">
<rect width="110" height="42" rx="4" fill="#CE5434"/>
<path d="M19.6595 24.5439V27.5035H20.7154C21.2753 27.5524 21.8351 27.4082 22.2993 27.0956C22.4554 26.9522 22.578 26.777 22.6585 26.5821C22.739 26.3873 22.7756 26.1775 22.7656 25.9673C22.7653 25.7764 22.7235 25.5877 22.6431 25.414C22.5626 25.2404 22.4454 25.0857 22.2993 24.9605C21.8334 24.6367 21.265 24.4888 20.6978 24.5439H19.6595ZM21.8329 31.8604H14.0017V13.5041H27.6667L26.6988 18.0953H19.6595V20.4474H21.8329C22.7216 20.4425 23.6077 20.5416 24.4727 20.7424C25.269 20.8915 26.0264 21.1986 26.6988 21.6451C27.3183 22.0967 27.8142 22.6932 28.1419 23.3809C28.5197 24.1971 28.7033 25.0877 28.6786 25.9846C28.7073 26.952 28.5242 27.9141 28.1419 28.8054C27.8178 29.5144 27.3223 30.1343 26.6988 30.6106C26.056 31.0834 25.3179 31.4149 24.5343 31.5827C23.6671 31.7692 22.782 31.8624 21.8945 31.8604" fill="#B8302F"/>
<path d="M37.0024 18.0953L36.2456 23.1379H38.419L37.6711 18.0953H37.0024ZM45.6079 31.8604H39.7125L39.0173 27.2692H35.6297L34.9522 31.8604H29.0656L32.7084 13.5041H41.9651L45.6079 31.8604Z" fill="#B8302F"/>
<path d="M55.5864 31.8604H49.8494V18.0866H45.3794L46.3561 13.5041H60.0564L59.0796 18.0866H55.5864V31.8604Z" fill="#B8302F"/>
<path d="M69.9551 18.0948C69.434 18.0956 68.9176 18.1928 68.4328 18.3812C67.9351 18.5743 67.4851 18.8702 67.113 19.2491C66.7272 19.6682 66.4283 20.1576 66.233 20.6898C65.7638 21.9655 65.7638 23.3632 66.233 24.6388C66.4283 25.1711 66.7272 25.6605 67.113 26.0796C67.4822 26.4619 67.933 26.7584 68.4328 26.9475C69.4145 27.3412 70.5132 27.3412 71.4949 26.9475C71.9883 26.7559 72.4328 26.4596 72.7972 26.0796C73.1788 25.6575 73.4772 25.1689 73.6771 24.6388C74.1347 23.3612 74.1347 21.9675 73.6771 20.6898C73.4772 20.1598 73.1788 19.6712 72.7972 19.2491C72.43 18.8725 71.9862 18.5767 71.4949 18.3812C71.0047 18.1904 70.4821 18.0932 69.9551 18.0948ZM69.9551 32.3199C68.647 32.3234 67.3484 32.1001 66.1187 31.6603C64.9334 31.2352 63.8449 30.5834 62.9158 29.7422C61.9749 28.8889 61.2204 27.8552 60.6984 26.7045C60.1326 25.4363 59.8505 24.0628 59.8713 22.6774C59.877 21.2892 60.1767 19.9175 60.7512 18.6502C61.2757 17.5034 62.03 16.4731 62.9686 15.6212C63.8926 14.7821 64.9749 14.1304 66.1539 13.7031C67.3794 13.2592 68.6759 13.0357 69.9815 13.0435C71.2927 13.0367 72.5948 13.26 73.8267 13.7031C75.0108 14.1306 76.0988 14.7822 77.0296 15.6212C77.9655 16.4735 78.7168 17.5038 79.2381 18.6502C79.7841 19.9246 80.0654 21.2939 80.0654 22.6774C80.0654 24.0608 79.7841 25.4302 79.2381 26.7045C78.7192 27.8547 77.9676 28.8884 77.0296 29.7422C76.0988 30.5812 75.0108 31.2328 73.8267 31.6603C72.5937 32.0993 71.2924 32.3226 69.9815 32.3199" fill="#B8302F"/>
<path d="M97.1531 31.8604H91.416V24.6481H87.4564V31.8604H81.7194V13.5041H87.4564V20.0568H91.416V13.5041H97.1531V31.8604Z" fill="#B8302F"/>
<path d="M13.3065 29.7683V11.4119H26.9627L25.9508 16.0032H18.9731V18.3205H21.1465C22.0498 18.3127 22.9508 18.4118 23.8302 18.6156C24.6069 18.7913 25.3399 19.1189 25.986 19.579C26.6113 20.0268 27.1109 20.6242 27.4378 21.3148C27.8118 22.132 27.9923 23.0224 27.9658 23.9185C27.9972 24.8853 27.8171 25.8473 27.4378 26.7393C27.1159 27.4569 26.6167 28.0836 25.986 28.5619C25.3463 29.0345 24.6111 29.366 23.8302 29.5339C22.9486 29.7232 22.0487 29.8163 21.1465 29.8117L13.3065 29.7683ZM18.9731 22.4518V25.4114H20.0026C20.5685 25.4659 21.1357 25.3214 21.604 25.0034C21.7616 24.8611 21.8851 24.6861 21.9658 24.491C22.0464 24.2959 22.0822 24.0855 22.0704 23.8752C22.0712 23.684 22.0299 23.495 21.9494 23.3212C21.8689 23.1474 21.7511 22.9929 21.604 22.8684C21.1388 22.5431 20.5699 22.3951 20.0026 22.4518H18.9731Z" fill="white"/>
<path d="M34.2483 29.7683H28.3528L31.9781 11.4119H41.2523L44.8952 29.7683H39.0174L38.3398 25.177H34.917L34.2483 29.7683ZM36.2896 16.0032L35.5417 21.0458H37.7151L36.9672 16.0032H36.2896Z" fill="white"/>
<path d="M54.8825 29.7683H49.1455V16.0032H44.6667L45.6522 11.4119H59.3524L58.3669 16.0032H54.8825V29.7683Z" fill="white"/>
<path d="M69.2512 10.9521C70.5593 10.9486 71.8578 11.1719 73.0876 11.6117C74.2707 12.0289 75.3591 12.6719 76.2905 13.5037C77.2291 14.3556 77.9833 15.386 78.5078 16.5328C79.0535 17.8087 79.3347 19.1794 79.3347 20.5642C79.3347 21.949 79.0535 23.3198 78.5078 24.5957C77.9833 25.7425 77.2291 26.7728 76.2905 27.6247C75.3613 28.4659 74.2729 29.1177 73.0876 29.5428C70.6076 30.422 67.8947 30.422 65.4147 29.5428C63.5507 28.8823 61.9444 27.6604 60.8232 26.0498C59.702 24.4393 59.1228 22.5217 59.1674 20.5686C59.1679 19.177 59.4678 17.8015 60.0473 16.5328C60.5608 15.3886 61.303 14.3584 62.2295 13.5037C63.1573 12.6759 64.239 12.0334 65.4147 11.6117C66.6413 11.1711 67.9371 10.9478 69.2424 10.9521M65.1332 20.5946C65.1197 21.2669 65.2362 21.9355 65.4763 22.5648C65.6763 23.0948 65.9747 23.5834 66.3563 24.0055C66.7284 24.3844 67.1784 24.6803 67.6761 24.8734C68.6601 25.2555 69.7543 25.2555 70.7382 24.8734C71.2295 24.6779 71.6733 24.3821 72.0405 24.0055C72.4262 23.5864 72.7252 23.097 72.9204 22.5648C73.3896 21.2891 73.3896 19.8914 72.9204 18.6158C72.7252 18.0835 72.4262 17.5941 72.0405 17.175C71.6761 16.795 71.2316 16.4987 70.7382 16.3071C69.7565 15.9134 68.6578 15.9134 67.6761 16.3071C67.1763 16.4962 66.7255 16.7927 66.3563 17.175C65.9747 17.5971 65.6763 18.0857 65.4763 18.6158C65.2355 19.2479 65.119 19.9195 65.1332 20.5946Z" fill="white"/>
<path d="M81.0159 29.7683V11.4119H86.7529V17.9647H90.7125V11.4119H96.4495V29.7683H90.7125V22.5559H86.7529V29.7683H81.0159Z" fill="white"/>
</svg>
