<svg width="152" height="68" viewBox="0 0 152 68" fill="none" xmlns="http://www.w3.org/2000/svg">
<path d="M124.886 27.357C124.886 27.357 115.885 38.0526 115.383 38.5797C115.126 38.8509 114.817 39.0673 114.474 39.2157C114.132 39.3642 113.762 39.4415 113.389 39.4432C112.632 39.4343 111.909 39.1256 111.379 38.585C110.85 38.0443 110.556 37.3158 110.564 36.5592V20.6939C110.579 19.9574 110.882 19.2562 111.408 18.7406C111.935 18.225 112.643 17.9363 113.38 17.9363C114.117 17.9363 114.825 18.225 115.351 18.7406C115.878 19.2562 116.181 19.9574 116.196 20.6939V30.1381C116.196 30.1381 125.248 19.0627 125.862 18.5263C126.359 18.0601 127.011 17.796 127.693 17.7843C128.452 17.7984 129.174 18.1126 129.702 18.6579C130.23 19.2033 130.52 19.9354 130.508 20.6939V36.5604C130.53 36.9426 130.474 37.3253 130.342 37.6848C130.211 38.0444 130.007 38.3734 129.744 38.6515C129.481 38.9297 129.164 39.1511 128.812 39.3023C128.46 39.4536 128.081 39.5313 127.698 39.5308C127.315 39.5306 126.936 39.4524 126.584 39.301C126.233 39.1496 125.915 38.9281 125.652 38.6501C125.389 38.3721 125.185 38.0435 125.054 37.6842C124.922 37.3249 124.865 36.9425 124.886 36.5604V27.3581V27.357ZM19.0036 36.5931C18.9886 37.325 18.6872 38.0219 18.164 38.5342C17.6408 39.0465 16.9375 39.3335 16.2051 39.3335C15.4726 39.3335 14.7693 39.0465 14.2461 38.5342C13.7229 38.0219 13.4215 37.325 13.4065 36.5931V23.4622H5.63113V36.5931C5.63405 37.3348 5.34826 38.0486 4.83419 38.5835C4.32012 39.1184 3.61806 39.4326 2.87642 39.4596C2.49918 39.4603 2.12547 39.3868 1.77669 39.2431C1.42791 39.0994 1.11089 38.8884 0.84375 38.6222C0.576615 38.356 0.364607 38.0398 0.219849 37.6916C0.0750924 37.3434 0.000425735 36.9702 0.000119186 36.5931V21.0539C-0.00676252 20.3013 0.28461 19.5765 0.810602 19.0379C1.33659 18.4993 2.05447 18.1906 2.80744 18.1792H16.1367C16.8928 18.1838 17.6169 18.4849 18.1531 19.0177C18.6893 19.5505 18.9947 20.2725 19.0036 21.0282V36.5931ZM72.1346 26.4584C71.944 24.2662 70.5538 22.5134 68.2387 22.5134C65.9236 22.5134 64.4984 24.0418 64.1008 26.4584H72.1334H72.1346ZM76.7647 35.6957C76.7647 36.9308 75.9603 37.7932 74.3281 38.4757C72.5742 39.1861 70.6918 39.5215 68.7999 39.4596C67.3608 39.5358 65.9221 39.3024 64.5809 38.7752C63.2397 38.2481 62.0274 37.4394 61.0257 36.4038C59.1078 34.1726 58.1079 31.2975 58.2278 28.3584C58.1564 25.541 59.1386 22.7983 60.9825 20.6659C61.9216 19.703 63.0531 18.9487 64.3033 18.452C65.5536 17.9553 66.8945 17.7274 68.2387 17.7831C69.517 17.7257 70.7931 17.9381 71.9838 18.4067C73.1744 18.8752 74.2529 19.5893 75.1489 20.5023C76.74 22.3073 77.5994 24.641 77.5586 27.0461C77.5586 29.1787 76.5391 30.4115 74.811 30.4115H64.1265C64.6539 33.1927 66.4159 34.6767 69.1624 34.6767C72.1603 34.6767 73.2746 33.2873 74.6648 33.2873C74.962 33.3046 75.2527 33.381 75.5199 33.512C75.7871 33.6431 76.0254 33.8261 76.2209 34.0504C76.4164 34.2748 76.5651 34.5358 76.6583 34.8184C76.7515 35.1009 76.7873 35.3992 76.7636 35.6957H76.7647ZM81.8088 21.3402C81.7662 20.5704 81.9892 19.8094 82.4406 19.1842C82.892 18.5591 83.5443 18.1077 84.2887 17.9055C85.0331 17.7033 85.8243 17.7625 86.5302 18.0733C87.2362 18.3841 87.8139 18.9276 88.1671 19.613L93.2368 28.8761L98.247 19.613C98.6083 18.9293 99.1913 18.3887 99.9005 18.0797C100.61 17.7707 101.403 17.7118 102.15 17.9126C102.897 18.1134 103.554 18.562 104.012 19.1847C104.471 19.8075 104.704 20.5676 104.673 21.3402V36.6551C104.695 37.0296 104.64 37.4047 104.512 37.7573C104.383 38.1099 104.184 38.4325 103.927 38.7055C103.669 38.9784 103.358 39.1958 103.013 39.3444C102.669 39.4931 102.297 39.5697 101.922 39.5697C101.546 39.5697 101.175 39.4931 100.83 39.3444C100.486 39.1958 100.175 38.9784 99.9172 38.7055C99.6596 38.4325 99.4605 38.1099 99.3321 37.7573C99.2038 37.4047 99.1488 37.0296 99.1707 36.6551V28.5652L95.9576 34.2455C95.7228 34.7705 95.3409 35.2163 94.8581 35.5291C94.3753 35.8419 93.8122 36.0084 93.2368 36.0084C92.6615 36.0084 92.0984 35.8419 91.6156 35.5291C91.1328 35.2163 90.7509 34.7705 90.516 34.2455L87.303 28.5664V36.6551C87.3101 37.0233 87.2431 37.3893 87.106 37.7312C86.969 38.0731 86.7646 38.384 86.5051 38.6455C86.2456 38.9071 85.9362 39.1139 85.5953 39.2537C85.2543 39.3935 84.8888 39.4635 84.5202 39.4596C84.1561 39.4596 83.7957 39.3864 83.4605 39.2443C83.1252 39.1022 82.8221 38.8941 82.569 38.6323C82.316 38.3706 82.1183 38.0607 81.9877 37.721C81.8571 37.3813 81.7962 37.0188 81.8088 36.6551V21.3402ZM142.896 23.0988C142.598 23.0571 142.293 23.0845 142.007 23.1789C141.72 23.2734 141.459 23.4323 141.244 23.6434C141.029 23.8545 140.865 24.1122 140.765 24.3967C140.665 24.6811 140.632 24.9847 140.668 25.284C140.668 27.2343 142.024 27.3897 143.665 27.3897H146.256V23.0731L142.896 23.0988ZM146.291 32.328H143.7L140.245 38.1029C140.041 38.5384 139.71 38.9015 139.294 39.1437C138.879 39.3859 138.4 39.4957 137.92 39.4584C137.396 39.4768 136.878 39.3359 136.435 39.0543C135.992 38.7727 135.646 38.3635 135.44 37.8809C135.305 37.5607 135.235 37.2166 135.234 36.8689C135.269 36.3162 135.452 35.7822 135.762 35.3229L138.205 31.1536C137.195 30.5397 136.369 29.6648 135.814 28.6212C135.259 27.5775 134.997 26.4036 135.053 25.2232C135.053 20.5607 138.085 18.1874 142.629 18.1874H148.96C149.327 18.183 149.69 18.2519 150.03 18.3901C150.369 18.5282 150.678 18.7329 150.937 18.9919C151.196 19.2509 151.401 19.5591 151.539 19.8984C151.677 20.2376 151.746 20.6011 151.742 20.9674V36.6784C151.748 37.4073 151.466 38.1092 150.956 38.6303C150.446 39.1514 149.75 39.4492 149.021 39.4584C148.29 39.4453 147.594 39.1471 147.08 38.6277C146.567 38.1082 146.277 37.4086 146.273 36.6784L146.291 32.328ZM70.8297 48.4702C71.1115 48.5473 71.3606 48.7144 71.5383 48.9458C71.7031 49.1678 71.7862 49.4389 71.7721 49.7135C71.7786 49.9286 71.7295 50.1417 71.6296 50.3322C71.5296 50.5228 71.3822 50.6844 71.2015 50.8014C70.7552 51.0974 70.2244 51.2398 69.6897 51.2069H67.0122V46.0279H69.6032C70.106 45.9976 70.6087 46.1144 71.046 46.3645C71.1966 46.479 71.317 46.6284 71.3968 46.7998C71.4767 46.9713 71.5136 47.1595 71.5044 47.3484C71.5213 47.5856 71.4605 47.8218 71.3313 48.0215C71.2077 48.2307 71.0199 48.3946 70.7958 48.4889L70.8309 48.4714L70.8297 48.4702ZM68.4889 48.0729H69.422C69.8628 48.0729 70.0615 47.9011 70.0615 47.5728C70.0615 47.2456 69.8628 47.0294 69.422 47.0294H68.455L68.4901 48.0741L68.4889 48.0729ZM69.664 50.1459C70.0966 50.1459 70.2954 49.9472 70.2954 49.5756C70.2954 49.2052 70.0966 49.0755 69.664 49.0755H68.455V50.1459H69.664ZM75.6586 49.2134H74.9852V51.1906H73.5166V46.0104H74.9852V48.0215H75.6937L76.877 45.9929H78.4227L76.877 48.5052L78.5174 51.1906H76.7986L75.6586 49.2134ZM85.0043 45.9929L82.8623 50.0162C82.659 50.4047 82.3625 50.7367 81.9994 50.9826C81.6859 51.2031 81.3117 51.3207 80.9284 51.3191C80.6046 51.3123 80.2849 51.2449 79.986 51.1204L80.3321 50.0512C80.4934 50.105 80.6618 50.1377 80.8325 50.1447C80.9625 50.1467 81.0907 50.1144 81.2043 50.0512C81.3362 49.9746 81.4509 49.8716 81.541 49.7486L79.4949 45.9929H81.0663L82.2753 48.5052L83.5194 45.9929H85.0043ZM88.9271 51.2852C88.4167 51.301 87.911 51.1851 87.4585 50.9487C87.0119 50.7381 86.6364 50.4018 86.3781 49.9811C86.1188 49.5591 85.9925 49.0689 86.0157 48.5742C85.996 48.0909 86.1223 47.6129 86.3781 47.2023C86.605 46.7793 86.9581 46.4381 87.3884 46.2266C87.8444 45.9964 88.3471 45.8842 88.8569 45.8994C89.2954 45.8819 89.7315 45.9613 90.136 46.1319C90.5102 46.2979 90.8423 46.5491 91.103 46.8646L90.17 47.7293C90.0243 47.5383 89.836 47.384 89.6199 47.2789C89.4039 47.1738 89.1662 47.1208 88.9259 47.124C88.6677 47.1201 88.4136 47.1889 88.1928 47.3227C87.9672 47.4355 87.7804 47.6128 87.6561 47.8322C87.5474 48.0741 87.4877 48.3346 87.4842 48.5999C87.4842 48.8768 87.5427 49.1503 87.6561 49.4039C87.7812 49.62 87.9683 49.7942 88.1928 49.904C88.4114 50.0419 88.6675 50.1108 88.9259 50.1026C89.1652 50.1057 89.4019 50.0535 89.6177 49.9501C89.8335 49.8467 90.0224 49.695 90.17 49.5067L91.103 50.3702C90.842 50.6866 90.511 50.9378 90.136 51.1041C89.7303 51.27 89.2942 51.3495 88.8569 51.3378L88.9271 51.2852ZM97.7454 45.9929V51.173H96.2687V49.1783H94.2903V51.1906H92.8136V46.0104H94.2903V47.9525H96.2687V45.9929H97.7454ZM102.504 47.6335C103.03 47.6113 103.547 47.7667 103.974 48.0741C104.152 48.2323 104.293 48.4283 104.386 48.6479C104.478 48.8675 104.521 49.105 104.509 49.3431C104.524 49.6032 104.477 49.8632 104.372 50.1017C104.267 50.3401 104.107 50.5503 103.905 50.715C103.441 51.0563 102.873 51.2246 102.298 51.1906H99.8523V46.0104H101.295V47.651L102.504 47.6335ZM102.202 50.1459C102.309 50.1518 102.416 50.1364 102.517 50.1007C102.618 50.065 102.711 50.0097 102.791 49.9379C102.861 49.8614 102.916 49.7717 102.951 49.674C102.987 49.5764 103.002 49.4726 102.998 49.3688C102.998 48.9026 102.729 48.6957 102.194 48.6957H101.33V50.1365L102.202 50.1459ZM105.079 45.9929H106.522V51.173H105.079V45.9929ZM112.792 50.0512V51.1906H108.63V46.0104H112.689V47.1497H110.098V48.0145H112.413V49.0755H110.098V50.0162L112.793 50.0512H112.792ZM123.478 45.9929C123.905 45.9812 124.328 46.0618 124.722 46.2266C125.049 46.368 125.329 46.6017 125.525 46.8997C125.702 47.2035 125.794 47.5494 125.793 47.9011C125.794 48.2669 125.703 48.6256 125.525 48.9458C125.311 49.2251 125.036 49.4524 124.722 49.6107C124.324 49.7626 123.903 49.8421 123.478 49.8444H122.614V51.1906H121.145V46.0104L123.478 45.9929ZM123.374 48.6782C123.627 48.6946 123.878 48.6214 124.082 48.4714C124.159 48.3979 124.219 48.3092 124.26 48.211C124.3 48.1128 124.319 48.0072 124.316 47.9011C124.31 47.6889 124.227 47.486 124.082 47.3309C123.875 47.1875 123.625 47.1176 123.374 47.1322H122.57V48.6782H123.374ZM132.262 45.9929L130.112 50.0162C129.908 50.4048 129.612 50.7369 129.248 50.9826C128.935 51.2031 128.56 51.3207 128.177 51.3191C127.854 51.3123 127.534 51.2449 127.236 51.1204L127.606 50.0512C127.769 50.105 127.937 50.1377 128.108 50.1447C128.238 50.1467 128.365 50.1144 128.479 50.0512C128.613 49.977 128.728 49.8736 128.816 49.7486L126.769 45.9929H128.341L129.551 48.5052L130.794 45.9929H132.262ZM133.697 45.9929H138.015V47.1334H135.13V47.9958H136.477C136.991 47.9677 137.498 48.1103 137.92 48.4024C138.089 48.538 138.223 48.7124 138.31 48.9107C138.398 49.1091 138.436 49.3255 138.422 49.5417C138.431 49.7779 138.384 50.0129 138.285 50.2274C138.186 50.442 138.037 50.6299 137.851 50.7757C137.394 51.1002 136.838 51.256 136.279 51.2163H133.688L133.697 45.9929ZM136.21 50.1459C136.412 50.1507 136.611 50.0936 136.78 49.9823C136.846 49.9372 136.899 49.8763 136.935 49.8053C136.972 49.7343 136.989 49.6553 136.987 49.5756C136.987 49.2134 136.711 49.0066 136.21 49.0066H135.174V50.1459H136.21ZM144.926 45.9929V51.173H143.483V47.1673H141.98V48.0308C141.987 48.6367 141.93 49.2416 141.808 49.835C141.746 50.2348 141.572 50.6088 141.306 50.9136C141.184 51.0462 141.034 51.1505 140.867 51.2192C140.7 51.2878 140.52 51.3191 140.339 51.3109C140.111 51.3074 139.885 51.2756 139.665 51.2163L139.735 50.008C139.8 50.0245 139.868 50.0245 139.932 50.008C140.019 50.015 140.107 49.9967 140.183 49.9552C140.26 49.9137 140.323 49.8509 140.365 49.7743C140.505 49.5897 140.589 49.3676 140.607 49.1351C140.607 48.8675 140.667 48.4971 140.702 48.0647L140.771 45.9847L144.926 45.9929ZM147.033 45.9929H148.476V49.0755L150.618 46.0279H152V51.2069H150.557V48.1337L148.407 51.1906H147.033V45.9929Z" fill="#912F46"/>
<path fill-rule="evenodd" clip-rule="evenodd" d="M58.7375 8.95118C56.0508 6.11265 52.8108 3.85407 49.2174 2.31464C45.6239 0.775202 41.7531 -0.0124738 37.8434 0.000149354C36.908 -0.00218773 35.975 0.044554 35.0443 0.136869C30.3352 0.578353 25.8105 2.18648 21.8799 4.81571L20.9305 3.59926C20.7571 3.37243 20.5243 3.198 20.2578 3.09531C19.9913 2.99263 19.7015 2.96568 19.4206 3.01747C19.1398 3.06926 18.8787 3.19775 18.6664 3.38872C18.4541 3.57968 18.2989 3.82566 18.2179 4.0994C17.4322 6.69005 16.6546 9.27954 15.8677 11.9286C15.7921 12.1833 15.7832 12.4531 15.8417 12.7122C15.9002 12.9713 16.0242 13.2111 16.2019 13.4087C16.3797 13.6062 16.6051 13.7549 16.8567 13.8405C17.1083 13.9261 17.3777 13.9458 17.6391 13.8976L25.0509 12.5339C25.3056 12.474 25.5411 12.3507 25.7355 12.1756C25.9299 12.0005 26.077 11.7791 26.163 11.5321C26.2491 11.2851 26.2713 11.0203 26.2278 10.7624C26.1842 10.5045 26.0762 10.2617 25.9138 10.0566L25.1807 9.11478C29.7586 6.17908 35.2166 4.92835 40.617 5.57746C46.0173 6.22658 51.023 8.73501 54.7739 12.6718C55.2083 13.1385 55.7955 13.4343 56.4293 13.5057C57.0631 13.5771 57.7015 13.4193 58.2289 13.0609C58.5608 12.8498 58.8415 12.5674 59.0506 12.2343C59.2597 11.9012 59.392 11.5257 59.4379 11.1352C59.4891 10.7421 59.4529 10.3425 59.3318 9.965C59.2108 9.58749 59.0078 9.24132 58.7375 8.95118ZM57.4502 43.6908L50.0993 45.0626C49.8377 45.1101 49.5928 45.2243 49.3882 45.3941C49.1837 45.5639 49.0265 45.7836 48.9319 46.0319C48.8372 46.2802 48.8083 46.5487 48.8479 46.8115C48.8875 47.0743 48.9944 47.3224 49.158 47.5318L49.8923 48.4724C46.1246 50.8906 41.7424 52.179 37.2646 52.1849C35.595 52.1849 33.93 52.0108 32.2966 51.6661V42.049L33.6786 42.4206C35.046 42.7739 36.4561 42.934 37.868 42.8962C42.5928 42.8962 46.7307 41.2555 49.227 38.3973C51.3352 36.0333 52.4062 32.7871 52.4062 28.7556C52.4062 24.7242 51.1013 21.2442 48.6307 18.8616C45.7801 16.0302 41.4622 14.5462 36.2018 14.5462C34.1757 14.5366 32.1525 14.7008 30.1546 15.037C27.0444 15.5908 26.0003 16.7641 26.0003 19.6644V49.3278C23.8691 48.1584 21.9292 46.6704 20.2477 44.9154C19.8131 44.4489 19.2258 44.1533 18.592 44.0822C17.9582 44.011 17.3199 44.169 16.7926 44.5274C16.46 44.7419 16.1791 45.0273 15.9701 45.3632C15.761 45.6991 15.629 46.0771 15.5835 46.47C15.538 46.8629 15.5802 47.2611 15.7069 47.6358C15.8337 48.0105 16.042 48.3525 16.3167 48.6372C19.0539 51.513 22.3531 53.796 26.0096 55.3446V64.9874C26.0367 65.7985 26.3793 66.567 26.9644 67.1295C27.5496 67.6921 28.3312 68.0044 29.1432 68C29.9525 67.9946 30.729 67.6791 31.3126 67.1187C31.8962 66.5583 32.2425 65.7955 32.2802 64.9874V57.1641C33.9113 57.4445 35.5658 57.5859 37.2202 57.5871C38.1439 57.5871 39.0863 57.5871 40.0193 57.4585C44.7372 57.0157 49.2702 55.4044 53.2083 52.7703L54.16 53.9973C54.3345 54.2218 54.5676 54.3938 54.8336 54.4944C55.0996 54.595 55.3883 54.6203 55.6678 54.5676C55.9473 54.5148 56.2068 54.3859 56.4177 54.1952C56.6286 54.0045 56.7828 53.7593 56.8633 53.4867C57.6589 50.8806 58.4423 48.2708 59.2134 45.6574C59.2906 45.4034 59.301 45.1337 59.2436 44.8745C59.1863 44.6153 59.0631 44.3752 58.8859 44.1773C58.7088 43.9795 58.4836 43.8306 58.2321 43.745C57.9807 43.6593 57.7114 43.6399 57.4502 43.6884V43.6908ZM32.2966 20.4602L33.2647 20.3468C34.5169 20.1886 35.7769 20.0992 37.039 20.0792C38.3147 20.0229 39.5873 20.2447 40.7687 20.7292C41.95 21.2137 43.0117 21.9493 43.8801 22.8849C44.6533 23.6487 45.2586 24.5654 45.6572 25.5762C46.0558 26.5871 46.2391 27.67 46.1952 28.7556C46.1952 31.9236 45.2797 33.9346 43.5177 35.5402C41.6731 37.0332 39.3403 37.7901 36.97 37.6646C35.6182 37.6905 34.2737 37.4621 33.0063 36.9915L32.2966 36.7228V20.4602Z" fill="#A1C441"/>
</svg>
