<svg width="153" height="43" viewBox="0 0 153 43" fill="none" xmlns="http://www.w3.org/2000/svg">
<rect width="153" height="43" rx="4" fill="#D50032"/>
<path d="M17.8609 21.7625H15.1356V27.9881H12.4535V13.2163H15.1356V19.4011H17.9418L22.1539 13.2163H25.0465L20.0384 20.3712L25.2353 27.9881H22.1539L17.8609 21.7625Z" fill="white"/>
<path d="M35.068 24.9068C35.3835 24.565 35.6283 24.1633 35.7882 23.7252C35.948 23.2871 36.0196 22.8214 35.9989 22.3551C36.0191 21.8885 35.9472 21.4225 35.7874 20.9841C35.6276 20.5456 35.3831 20.1434 35.068 19.8008C34.7604 19.4809 34.3897 19.2293 33.9799 19.0623C33.57 18.8952 33.13 18.8163 32.6881 18.8307C32.0945 18.8223 31.5091 18.9713 30.9908 19.2627C30.487 19.5542 30.074 19.9815 29.7982 20.4964C29.5091 21.0723 29.3585 21.7085 29.3585 22.3538C29.3585 22.999 29.5091 23.6353 29.7982 24.2111C30.0732 24.7267 30.4864 25.1542 30.9908 25.4448C31.5084 25.7385 32.0941 25.8885 32.6881 25.8796C33.1302 25.8941 33.5705 25.8151 33.9805 25.6475C34.3904 25.4799 34.7609 25.2276 35.068 24.9068ZM35.9044 17.3116C36.7551 17.7807 37.4567 18.4825 37.9282 19.3361C38.4302 20.2607 38.6832 21.3015 38.6621 22.3551C38.6822 23.4112 38.4292 24.4544 37.9282 25.3823C37.459 26.2404 36.7571 26.9463 35.9044 27.4177C35.0065 27.9116 33.9971 28.1634 32.9741 28.1487C31.4666 28.1487 30.2722 27.6423 29.3907 26.6296V32.0971H26.7734V16.7192H29.2666V18.1975C29.6941 17.6725 30.245 17.2634 30.8694 17.0073C31.5376 16.7344 32.2531 16.5986 32.9741 16.6078C33.9932 16.5904 34.9996 16.8374 35.8963 17.3252" fill="white"/>
<path d="M46.4138 25.7632C46.9142 25.4716 47.2964 25.0117 47.4931 24.4642V23.1572H44.7813C43.272 23.1572 42.5174 23.6563 42.5174 24.6545C42.5106 24.8767 42.5589 25.0971 42.6578 25.2959C42.7567 25.4947 42.9032 25.6655 43.0841 25.7931C43.5495 26.1012 44.1012 26.2498 44.6572 26.217C45.27 26.2277 45.8743 26.0709 46.4057 25.7632M48.7937 17.7849C49.6679 18.5802 50.105 19.7794 50.105 21.3827V27.9887H47.6307V26.63C47.295 27.1352 46.8179 27.5286 46.26 27.7605C45.5746 28.0382 44.8398 28.1704 44.1013 28.149C43.3451 28.1657 42.5942 28.0184 41.8995 27.717C41.3111 27.4629 40.806 27.0465 40.4424 26.5159C40.1011 26.0006 39.9224 25.3934 39.9298 24.774C39.9137 24.3063 40.0069 23.8414 40.2019 23.4166C40.3968 22.9918 40.6881 22.6191 41.0522 22.3284C41.8006 21.7179 42.977 21.4117 44.5816 21.4099H47.4742V21.2414C47.4952 20.9057 47.4434 20.5694 47.3222 20.2559C47.201 19.9424 47.0135 19.6592 46.7726 19.4262C46.3031 19.005 45.6097 18.793 44.6869 18.793C44.0574 18.794 43.432 18.894 42.8331 19.0892C42.2727 19.2598 41.7498 19.5364 41.2924 19.9044L40.2643 17.9832C40.901 17.5101 41.6191 17.16 42.3825 16.9506C43.2339 16.7077 44.115 16.5869 44.9999 16.5919C46.6494 16.5919 47.9086 16.9887 48.7775 17.7821" fill="white"/>
<path d="M54.8977 27.3985C54.0008 26.9291 53.2528 26.2154 52.739 25.3387C52.215 24.4321 51.9472 23.3984 51.9646 22.3496C51.9449 21.3004 52.2129 20.2661 52.739 19.3604C53.2561 18.4899 54.0036 17.7814 54.8977 17.3142C55.8641 16.808 56.9412 16.5539 58.0304 16.5751C59.0377 16.5639 60.0318 16.8058 60.923 17.2789C61.7402 17.7099 62.4012 18.3899 62.8118 19.2218L60.7988 20.4039C60.5088 19.9123 60.0932 19.5078 59.5954 19.2327C58.9506 18.8945 58.2173 18.7665 57.4971 18.8662C56.7768 18.966 56.1051 19.2888 55.5749 19.7898C55.2487 20.1283 54.9949 20.5306 54.8292 20.9718C54.6635 21.413 54.5894 21.8838 54.6116 22.355C54.5892 22.8251 54.6624 23.2949 54.8266 23.7355C54.9909 24.1762 55.2428 24.5784 55.5668 24.9175C56.0971 25.4188 56.7684 25.7428 57.4886 25.8449C58.2089 25.9471 58.9428 25.8225 59.59 25.4882C60.0867 25.2115 60.5018 24.8074 60.7934 24.317L62.8064 25.499C62.388 26.3274 61.7292 27.0079 60.9176 27.4501C60.0262 27.9273 59.0288 28.1676 58.0196 28.1485C56.9345 28.1667 55.8619 27.9137 54.8977 27.4121" fill="white"/>
<path d="M64.6578 16.7198H67.2779V21.2986H72.9119V16.7198H75.532V27.9888H72.9119V23.5377H67.2779V27.9888H64.6578V16.7198Z" fill="white"/>
<path d="M89.7572 16.7198H92.3746V27.9888H89.7572V16.7198ZM85.0622 25.5839C85.2691 25.4009 85.4315 25.1723 85.5368 24.916C85.642 24.6597 85.6874 24.3825 85.6693 24.1057C85.6905 23.8434 85.6482 23.5799 85.5463 23.3376C85.4443 23.0953 85.2856 22.8815 85.0838 22.7144C84.6934 22.4173 84.0998 22.2624 83.3029 22.2497L81.0822 22.2279V26.0486L83.3029 26.0676C84.0719 26.0839 84.6521 25.9209 85.0622 25.5839M87.1804 21.4046C87.9341 22.0513 88.311 22.9662 88.311 24.1491C88.311 25.3847 87.8954 26.3412 87.0643 27.0187C86.2333 27.6963 85.0559 28.0269 83.5323 28.0106L78.4622 27.9888V16.7198H81.0822V20.4127L83.91 20.4345C85.3347 20.4345 86.4248 20.7578 87.1804 21.4046Z" fill="white"/>
<path d="M95.2916 16.7198H97.909V24.1491L104.091 16.7198H106.481V27.9888H103.861V20.5622L97.7012 27.9888H95.2916V16.7198Z" fill="white"/>
<path d="M118.716 16.3197C118.122 16.8387 117.825 17.5996 117.825 18.5969C117.825 19.5942 118.111 20.317 118.683 20.8442C119.255 21.3714 120.081 21.6268 121.171 21.6268H124.606V15.5371H121.274C120.157 15.5371 119.301 15.7979 118.708 16.3197M127.288 13.2164V27.9882H124.606V23.8741H120.688L117.963 27.9882H115.095L118.235 23.4311C117.278 23.0996 116.453 22.467 115.88 21.6268C115.308 20.7385 115.019 19.6957 115.051 18.6376C115.024 17.6142 115.286 16.6039 115.807 15.7246C116.318 14.9012 117.062 14.251 117.944 13.8577C118.964 13.4086 120.069 13.1888 121.182 13.2137L127.288 13.2164Z" fill="white"/>
<path d="M138.634 24.9068C138.95 24.5647 139.194 24.163 139.355 23.7251C139.515 23.2871 139.587 22.8215 139.568 22.3551C139.588 21.8883 139.515 21.4222 139.355 20.9838C139.195 20.5453 138.95 20.1432 138.634 19.8008C138.327 19.4806 137.956 19.2289 137.546 19.0618C137.137 18.8947 136.696 18.816 136.254 18.8307C135.661 18.8216 135.075 18.9707 134.557 19.2627C134.052 19.5532 133.638 19.9806 133.362 20.4964C133.073 21.0723 132.922 21.7085 132.922 22.3538C132.922 22.999 133.073 23.6353 133.362 24.2111C133.637 24.7274 134.051 25.155 134.557 25.4448C135.075 25.7391 135.66 25.8891 136.254 25.8796C136.696 25.8941 137.136 25.815 137.546 25.6474C137.955 25.4798 138.325 25.2275 138.632 24.9068M139.471 17.3116C140.321 17.7805 141.022 18.4824 141.492 19.3361C141.994 20.2607 142.247 21.3015 142.226 22.3551C142.246 23.4112 141.993 24.4544 141.492 25.3823C141.024 26.2405 140.323 26.9466 139.471 27.4177C138.575 27.9096 137.569 28.1614 136.549 28.1486C135.041 28.1486 133.848 27.6423 132.968 26.6296V32.097H130.348V16.7192H132.841V18.1975C133.269 17.6725 133.82 17.2634 134.444 17.0073C135.112 16.7349 135.828 16.5991 136.549 16.6078C137.568 16.5905 138.576 16.8375 139.473 17.3252" fill="white"/>
<path d="M100.906 15.2687C101.505 15.2679 102.098 15.1474 102.65 14.9142C103.202 14.6809 103.703 14.3396 104.123 13.91L102.525 12.3176C102.097 12.7536 101.515 13.0008 100.906 13.0051V13.0051C100.299 13.0043 99.7168 12.761 99.2873 12.3284L97.6684 13.9344C98.0895 14.3595 98.5901 14.6962 99.1412 14.9252C99.6924 15.1542 100.283 15.271 100.879 15.2687H100.906Z" fill="white"/>
</svg>
