<svg width="18" height="10" viewBox="0 0 18 10" fill="none" xmlns="http://www.w3.org/2000/svg">
<path fill-rule="evenodd" clip-rule="evenodd" d="M9.88275 9.9582C9.88275 9.9582 10.2076 9.92305 10.374 9.74902C10.5263 9.58956 10.521 9.28864 10.521 9.28864C10.521 9.28864 10.5008 7.88349 11.1707 7.67602C11.831 7.47198 12.6788 9.03487 13.5786 9.63585C14.2582 10.0902 14.7741 9.99078 14.7741 9.99078L17.1785 9.9582C17.1785 9.9582 18.4356 9.88276 17.8396 8.91999C17.7903 8.84111 17.4919 8.20756 16.0525 6.90614C14.5444 5.54386 14.7469 5.76419 16.5622 3.40742C17.668 1.97227 18.1099 1.09609 17.9717 0.721437C17.8405 0.363077 17.027 0.458239 17.027 0.458239L14.3207 0.474528C14.3207 0.474528 14.12 0.447951 13.9712 0.534541C13.826 0.619416 13.7318 0.817456 13.7318 0.817456C13.7318 0.817456 13.3039 1.92769 12.7325 2.87245C11.5273 4.86486 11.0457 4.97031 10.8485 4.84686C10.3898 4.55794 10.5043 3.68776 10.5043 3.06964C10.5043 1.13809 10.8054 0.333071 9.91884 0.124742C9.62479 0.0552989 9.40822 0.00986093 8.6555 0.00214504C7.68972 -0.00728548 6.87273 0.00557431 6.40965 0.225906C6.10151 0.372507 5.86381 0.700004 6.00907 0.718865C6.18779 0.742012 6.59276 0.825172 6.80758 1.1098C7.0849 1.47759 7.07521 2.30233 7.07521 2.30233C7.07521 2.30233 7.23456 4.57595 6.70281 4.85801C6.33833 5.05176 5.83828 4.65654 4.76333 2.84845C4.2131 1.92254 3.79756 0.898902 3.79756 0.898902C3.79756 0.898902 3.71744 0.70772 3.57394 0.604841C3.4005 0.48053 3.1584 0.44195 3.1584 0.44195L0.586807 0.458239C0.586807 0.458239 0.20032 0.468527 0.0585791 0.632275C-0.0673154 0.777162 0.0488949 1.07808 0.0488949 1.07808C0.0488949 1.07808 2.06233 5.6656 4.34251 7.97779C6.43342 10.0971 8.80692 9.9582 8.80692 9.9582H9.88275Z" fill="#212121"/>
</svg>
