<svg width="130" height="59" viewBox="0 0 130 59" fill="none" xmlns="http://www.w3.org/2000/svg">
<path d="M106.81 23.4111C106.81 23.4111 99.1121 32.5641 98.6831 33.0151C98.4635 33.2472 98.1991 33.4324 97.9058 33.5594C97.6126 33.6864 97.2967 33.7526 96.9771 33.7541C96.3297 33.7464 95.7117 33.4823 95.2588 33.0196C94.8059 32.5569 94.555 31.9335 94.5611 31.2861V17.7091C94.5739 17.0788 94.8333 16.4787 95.2836 16.0375C95.7339 15.5963 96.3392 15.3491 96.9696 15.3491C97.6 15.3491 98.2053 15.5963 98.6556 16.0375C99.1059 16.4787 99.3653 17.0788 99.3781 17.7091V25.7911C99.3781 25.7911 107.12 16.3131 107.645 15.8541C108.07 15.4551 108.628 15.2291 109.211 15.2191C109.86 15.2312 110.478 15.5 110.929 15.9667C111.381 16.4334 111.629 17.0599 111.619 17.7091V31.2871C111.638 31.6141 111.589 31.9416 111.477 32.2493C111.365 32.557 111.19 32.8385 110.965 33.0766C110.74 33.3146 110.469 33.5041 110.168 33.6335C109.867 33.7629 109.543 33.8295 109.215 33.8291C108.888 33.8289 108.564 33.7619 108.263 33.6324C107.962 33.5028 107.691 33.3132 107.466 33.0754C107.241 32.8375 107.067 32.5562 106.954 32.2487C106.841 31.9413 106.792 31.6141 106.81 31.2871V23.4121V23.4111ZM16.2531 31.3151C16.2403 31.9414 15.9825 32.5377 15.535 32.9762C15.0876 33.4146 14.4861 33.6601 13.8596 33.6601C13.2331 33.6601 12.6316 33.4146 12.1842 32.9762C11.7367 32.5377 11.4789 31.9414 11.4661 31.3151V20.0781H4.8161V31.3151C4.8186 31.9498 4.57418 32.5606 4.13451 33.0183C3.69484 33.4761 3.09439 33.745 2.4601 33.7681C2.13745 33.7687 1.81784 33.7058 1.51954 33.5828C1.22124 33.4599 0.950101 33.2793 0.721629 33.0515C0.493158 32.8237 0.311835 32.553 0.188029 32.2551C0.0642238 31.9571 0.000364116 31.6377 0.000101935 31.3151V18.0171C-0.00578374 17.373 0.243416 16.7528 0.693278 16.2919C1.14314 15.831 1.75711 15.5668 2.4011 15.5571H13.8011C14.4478 15.561 15.0671 15.8186 15.5257 16.2746C15.9843 16.7306 16.2455 17.3484 16.2531 17.9951V31.3151ZM61.6941 22.6421C61.5311 20.7661 60.3421 19.2661 58.3621 19.2661C56.3821 19.2661 55.1631 20.5741 54.8231 22.6421H61.6931H61.6941ZM65.6541 30.5471C65.6541 31.6041 64.9661 32.3421 63.5701 32.9261C62.0701 33.5341 60.4601 33.8211 58.8421 33.7681C57.6113 33.8333 56.3807 33.6336 55.2337 33.1824C54.0867 32.7313 53.0498 32.0393 52.1931 31.1531C50.5527 29.2437 49.6976 26.7832 49.8001 24.2681C49.7391 21.857 50.5791 19.5099 52.1561 17.6851C52.9593 16.8611 53.927 16.2155 54.9963 15.7904C56.0656 15.3654 57.2124 15.1704 58.3621 15.2181C59.4554 15.1689 60.5468 15.3507 61.5651 15.7517C62.5834 16.1526 63.5058 16.7637 64.2721 17.5451C65.6329 19.0897 66.3679 21.0868 66.3331 23.1451C66.3331 24.9701 65.4611 26.0251 63.9831 26.0251H54.8451C55.2961 28.4051 56.8031 29.6751 59.1521 29.6751C61.7161 29.6751 62.6691 28.4861 63.8581 28.4861C64.1122 28.5008 64.3609 28.5662 64.5894 28.6783C64.818 28.7905 65.0218 28.9471 65.189 29.1391C65.3562 29.3311 65.4834 29.5545 65.5631 29.7963C65.6428 30.038 65.6734 30.2933 65.6531 30.5471H65.6541ZM69.9681 18.2621C69.9317 17.6033 70.1224 16.9521 70.5084 16.4171C70.8945 15.8821 71.4524 15.4958 72.0891 15.3228C72.7257 15.1498 73.4025 15.2005 74.0062 15.4664C74.6099 15.7324 75.1041 16.1975 75.4061 16.7841L79.7421 24.7111L84.0271 16.7841C84.3361 16.199 84.8347 15.7363 85.4413 15.4719C86.0478 15.2074 86.7262 15.157 87.3652 15.3289C88.0041 15.5007 88.5657 15.8846 88.9578 16.4175C89.3499 16.9505 89.5493 17.6009 89.5231 18.2621V31.3681C89.5418 31.6886 89.4948 32.0096 89.385 32.3113C89.2752 32.613 89.1049 32.8892 88.8846 33.1227C88.6643 33.3563 88.3985 33.5424 88.1037 33.6695C87.8089 33.7967 87.4912 33.8623 87.1701 33.8623C86.849 33.8623 86.5313 33.7967 86.2365 33.6695C85.9417 33.5424 85.6759 33.3563 85.4556 33.1227C85.2353 32.8892 85.065 32.613 84.9552 32.3113C84.8454 32.0096 84.7984 31.6886 84.8171 31.3681V24.4451L82.0691 29.3061C81.8682 29.7553 81.5416 30.1368 81.1287 30.4045C80.7158 30.6722 80.2342 30.8146 79.7421 30.8146C79.25 30.8146 78.7684 30.6722 78.3555 30.4045C77.9426 30.1368 77.616 29.7553 77.4151 29.3061L74.6671 24.4461V31.3681C74.6731 31.6832 74.6159 31.9964 74.4986 32.289C74.3814 32.5816 74.2067 32.8476 73.9847 33.0715C73.7628 33.2953 73.4982 33.4722 73.2066 33.5919C72.9149 33.7116 72.6023 33.7715 72.2871 33.7681C71.9757 33.7681 71.6674 33.7055 71.3807 33.5838C71.094 33.4622 70.8347 33.2841 70.6183 33.0602C70.4019 32.8362 70.2328 32.571 70.1211 32.2802C70.0094 31.9895 69.9574 31.6793 69.9681 31.3681V18.2621ZM122.214 19.7671C121.959 19.7314 121.698 19.7548 121.453 19.8356C121.208 19.9164 120.985 20.0524 120.801 20.2331C120.617 20.4138 120.477 20.6343 120.391 20.8777C120.306 21.1211 120.277 21.3809 120.308 21.6371C120.308 23.3061 121.468 23.4391 122.871 23.4391H125.087V19.7451L122.214 19.7671ZM125.117 27.6651H122.901L119.946 32.6071C119.772 32.9797 119.489 33.2904 119.133 33.4977C118.778 33.705 118.368 33.799 117.958 33.7671C117.51 33.7828 117.067 33.6623 116.688 33.4213C116.309 33.1802 116.013 32.8301 115.837 32.4171C115.721 32.143 115.661 31.8486 115.661 31.5511C115.691 31.0781 115.847 30.6211 116.112 30.2281L118.202 26.6601C117.338 26.1347 116.631 25.386 116.157 24.4929C115.683 23.5998 115.458 22.5952 115.506 21.5851C115.506 17.5951 118.099 15.5641 121.985 15.5641H127.4C127.714 15.5603 128.025 15.6193 128.315 15.7375C128.605 15.8557 128.869 16.0308 129.091 16.2525C129.312 16.4742 129.487 16.7379 129.606 17.0282C129.724 17.3186 129.783 17.6296 129.779 17.9431V31.3881C129.785 32.0118 129.543 32.6125 129.107 33.0584C128.671 33.5043 128.076 33.7592 127.452 33.7671C126.827 33.7558 126.232 33.5007 125.793 33.0561C125.353 32.6116 125.106 32.0129 125.102 31.3881L125.117 27.6651ZM60.5781 41.4791C60.8191 41.5451 61.0321 41.6881 61.1841 41.8861C61.3251 42.0761 61.3961 42.3081 61.3841 42.5431C61.3896 42.7271 61.3477 42.9095 61.2622 43.0725C61.1767 43.2356 61.0506 43.3739 60.8961 43.4741C60.5143 43.7274 60.0604 43.8492 59.6031 43.8211H57.3131V39.3891H59.5291C59.9591 39.3631 60.3891 39.4631 60.7631 39.6771C60.8919 39.7751 60.9948 39.9029 61.0631 40.0496C61.1314 40.1963 61.163 40.3574 61.1551 40.5191C61.1696 40.722 61.1176 40.9242 61.0071 41.0951C60.9014 41.2741 60.7408 41.4144 60.5491 41.4951L60.5791 41.4801L60.5781 41.4791ZM58.5761 41.1391H59.3741C59.7511 41.1391 59.9211 40.9921 59.9211 40.7111C59.9211 40.4311 59.7511 40.2461 59.3741 40.2461H58.5471L58.5771 41.1401L58.5761 41.1391ZM59.5811 42.9131C59.9511 42.9131 60.1211 42.7431 60.1211 42.4251C60.1211 42.1081 59.9511 41.9971 59.5811 41.9971H58.5471V42.9131H59.5811ZM64.7081 42.1151H64.1321V43.8071H62.8761V39.3741H64.1321V41.0951H64.7381L65.7501 39.3591H67.0721L65.7501 41.5091L67.1531 43.8071H65.6831L64.7081 42.1151ZM72.7011 39.3591L70.8691 42.8021C70.6953 43.1345 70.4417 43.4187 70.1311 43.6291C69.863 43.8178 69.5429 43.9184 69.2151 43.9171C68.9382 43.9112 68.6648 43.8536 68.4091 43.7471L68.7051 42.8321C68.8431 42.8781 68.9871 42.9061 69.1331 42.9121C69.2443 42.9137 69.3539 42.8862 69.4511 42.8321C69.5639 42.7665 69.662 42.6783 69.7391 42.5731L67.9891 39.3591H69.3331L70.3671 41.5091L71.4311 39.3591H72.7011ZM76.0561 43.8881C75.6196 43.9016 75.1871 43.8024 74.8001 43.6001C74.4181 43.4198 74.097 43.1321 73.8761 42.7721C73.6543 42.4109 73.5463 41.9914 73.5661 41.5681C73.5493 41.1545 73.6573 40.7454 73.8761 40.3941C74.0701 40.0321 74.3721 39.7401 74.7401 39.5591C75.1301 39.3621 75.5601 39.2661 75.9961 39.2791C76.3711 39.2641 76.7441 39.3321 77.0901 39.4781C77.4101 39.6201 77.6941 39.8351 77.9171 40.1051L77.1191 40.8451C76.9946 40.6816 76.8334 40.5496 76.6487 40.4596C76.4639 40.3697 76.2606 40.3243 76.0551 40.3271C75.8343 40.3237 75.617 40.3826 75.4281 40.4971C75.2352 40.5936 75.0754 40.7454 74.9691 40.9331C74.8761 41.1401 74.8251 41.3631 74.8221 41.5901C74.8221 41.8271 74.8721 42.0611 74.9691 42.2781C75.0761 42.4631 75.2361 42.6121 75.4281 42.7061C75.6151 42.8241 75.8341 42.8831 76.0551 42.8761C76.2597 42.8786 76.4622 42.834 76.6468 42.7455C76.8313 42.6571 76.9929 42.5272 77.1191 42.3661L77.9171 43.1051C77.6939 43.3757 77.4108 43.5908 77.0901 43.7331C76.7431 43.8751 76.3701 43.9431 75.9961 43.9331L76.0561 43.8881ZM83.5981 39.3591V43.7921H82.3351V42.0851H80.6431V43.8071H79.3801V39.3741H80.6431V41.0361H82.3351V39.3591H83.5981ZM87.6681 40.7631C88.1181 40.7441 88.5601 40.8771 88.9251 41.1401C89.0776 41.2755 89.1979 41.4433 89.2772 41.6312C89.3564 41.8191 89.3926 42.0223 89.3831 42.2261C89.3958 42.4487 89.3556 42.6711 89.2657 42.8752C89.1759 43.0793 89.0389 43.2591 88.8661 43.4001C88.4697 43.6922 87.9836 43.8362 87.4921 43.8071H85.4001V39.3741H86.6341V40.7781L87.6681 40.7631ZM87.4101 42.9131C87.5015 42.9181 87.5931 42.905 87.6794 42.8744C87.7658 42.8439 87.8452 42.7965 87.9131 42.7351C87.9733 42.6696 88.02 42.5929 88.0503 42.5093C88.0807 42.4257 88.0942 42.3369 88.0901 42.2481C88.0901 41.8491 87.8601 41.6721 87.4031 41.6721H86.6641V42.9051L87.4101 42.9131ZM89.8701 39.3591H91.1041V43.7921H89.8701V39.3591ZM96.4671 42.8321V43.8071H92.9071V39.3741H96.3791V40.3491H94.1631V41.0891H96.1431V41.9971H94.1631V42.8021L96.4681 42.8321H96.4671ZM105.606 39.3591C105.971 39.3491 106.333 39.4181 106.67 39.5591C106.95 39.6801 107.189 39.8801 107.357 40.1351C107.508 40.3951 107.587 40.6911 107.586 40.9921C107.587 41.3051 107.509 41.6121 107.357 41.8861C107.174 42.1251 106.939 42.3196 106.67 42.4551C106.33 42.5851 105.97 42.6531 105.606 42.6551H104.867V43.8071H103.611V39.3741L105.606 39.3591ZM105.517 41.6571C105.734 41.6711 105.948 41.6085 106.123 41.4801C106.189 41.4172 106.24 41.3413 106.275 41.2573C106.309 41.1732 106.326 41.0829 106.323 40.9921C106.318 40.8104 106.247 40.6369 106.123 40.5041C105.946 40.3814 105.732 40.3216 105.517 40.3341H104.83V41.6571H105.517ZM113.119 39.3591L111.28 42.8021C111.106 43.1346 110.852 43.4188 110.541 43.6291C110.273 43.8178 109.953 43.9184 109.625 43.9171C109.348 43.9112 109.075 43.8536 108.82 43.7471L109.137 42.8321C109.276 42.8781 109.42 42.9061 109.566 42.9121C109.677 42.9138 109.786 42.8862 109.883 42.8321C109.998 42.7685 110.096 42.68 110.172 42.5731L108.421 39.3591H109.765L110.8 41.5091L111.863 39.3591H113.119ZM114.346 39.3591H118.039V40.3351H115.572V41.0731H116.724C117.163 41.0491 117.597 41.1711 117.958 41.4211C118.103 41.5371 118.217 41.6863 118.292 41.8561C118.367 42.0258 118.399 42.211 118.387 42.3961C118.395 42.5981 118.355 42.7993 118.27 42.9829C118.185 43.1665 118.058 43.3273 117.899 43.4521C117.508 43.7298 117.033 43.863 116.554 43.8291H114.338L114.346 39.3591ZM116.495 42.9131C116.668 42.9172 116.838 42.8684 116.983 42.7731C117.039 42.7345 117.085 42.6824 117.116 42.6216C117.147 42.5608 117.162 42.4932 117.16 42.4251C117.16 42.1151 116.924 41.9381 116.495 41.9381H115.609V42.9131H116.495ZM123.95 39.3591V43.7921H122.716V40.3641H121.43V41.1031C121.437 41.6215 121.387 42.1392 121.283 42.6471C121.23 42.9892 121.082 43.3092 120.854 43.5701C120.749 43.6836 120.621 43.7728 120.478 43.8315C120.335 43.8903 120.181 43.9171 120.027 43.9101C119.832 43.907 119.638 43.8798 119.45 43.8291L119.51 42.7951C119.566 42.8092 119.624 42.8092 119.679 42.7951C119.754 42.8011 119.828 42.7854 119.894 42.7499C119.959 42.7144 120.013 42.6606 120.049 42.5951C120.169 42.4371 120.241 42.2471 120.256 42.0481C120.256 41.8191 120.307 41.5021 120.337 41.1321L120.396 39.3521L123.95 39.3591ZM125.752 39.3591H126.986V41.9971L128.818 39.3891H130V43.8211H128.766V41.1911L126.927 43.8071H125.752V39.3591Z" fill="white"/>
<path fill-rule="evenodd" clip-rule="evenodd" d="M50.2361 7.66013C47.9382 5.231 45.1672 3.29819 42.0938 1.98079C39.0205 0.663393 35.7099 -0.0106747 32.3661 0.000127812C31.5661 -0.00187219 30.7681 0.0381278 29.9721 0.117128C25.9446 0.494935 22.0748 1.87112 18.7131 4.12113L17.9011 3.08013C17.7528 2.88601 17.5537 2.73675 17.3257 2.64887C17.0978 2.56099 16.85 2.53793 16.6098 2.58225C16.3695 2.62657 16.1463 2.73653 15.9647 2.89995C15.7831 3.06337 15.6504 3.27388 15.5811 3.50813C14.9091 5.72513 14.2441 7.94113 13.5711 10.2081C13.5064 10.4261 13.4988 10.6569 13.5488 10.8787C13.5988 11.1005 13.7049 11.3057 13.8569 11.4747C14.0089 11.6438 14.2017 11.771 14.4169 11.8442C14.6321 11.9175 14.8625 11.9343 15.0861 11.8931L21.4251 10.7261C21.643 10.6748 21.8444 10.5693 22.0107 10.4195C22.1769 10.2696 22.3027 10.0802 22.3763 9.8688C22.4499 9.65739 22.4689 9.43084 22.4317 9.21012C22.3944 8.98939 22.302 8.78165 22.1631 8.60613L21.5361 7.80013C25.4514 5.28785 30.1195 4.21752 34.7382 4.77301C39.357 5.3285 43.6381 7.47514 46.8461 10.8441C47.2176 11.2435 47.7199 11.4966 48.2619 11.5577C48.804 11.6188 49.35 11.4838 49.8011 11.1771C50.085 10.9964 50.325 10.7547 50.5039 10.4697C50.6827 10.1846 50.7959 9.86334 50.8351 9.52913C50.8789 9.19271 50.8479 8.85078 50.7444 8.52772C50.6408 8.20466 50.4673 7.90842 50.2361 7.66013ZM49.1351 37.3891L42.8481 38.5631C42.6244 38.6038 42.4149 38.7014 42.24 38.8468C42.065 38.9921 41.9306 39.1801 41.8496 39.3926C41.7687 39.6051 41.7439 39.8349 41.7778 40.0598C41.8117 40.2846 41.9031 40.4969 42.0431 40.6761L42.6711 41.4811C39.4487 43.5505 35.7007 44.653 31.8711 44.6581C30.4431 44.6581 29.0191 44.5091 27.6221 44.2141V35.9841L28.8041 36.3021C29.9736 36.6045 31.1796 36.7415 32.3871 36.7091C36.4281 36.7091 39.9671 35.3051 42.1021 32.8591C43.9051 30.8361 44.8211 28.0581 44.8211 24.6081C44.8211 21.1581 43.7051 18.1801 41.5921 16.1411C39.1541 13.7181 35.4611 12.4481 30.9621 12.4481C29.2293 12.4399 27.4989 12.5804 25.7901 12.8681C23.1301 13.3421 22.2371 14.3461 22.2371 16.8281V42.2131C20.4144 41.2124 18.7552 39.939 17.3171 38.4371C16.9454 38.0379 16.4431 37.785 15.9011 37.7241C15.359 37.6632 14.8131 37.7983 14.3621 38.1051C14.0777 38.2887 13.8374 38.5329 13.6586 38.8204C13.4798 39.1078 13.3669 39.4312 13.328 39.7675C13.2891 40.1038 13.3251 40.4445 13.4336 40.7651C13.542 41.0858 13.7201 41.3785 13.9551 41.6221C16.2961 44.0831 19.1178 46.0368 22.2451 47.3621V55.6141C22.2683 56.3082 22.5612 56.9658 23.0617 57.4472C23.5622 57.9287 24.2307 58.1959 24.9251 58.1921C25.6173 58.1875 26.2814 57.9176 26.7805 57.438C27.2797 56.9584 27.5759 56.3056 27.6081 55.6141V48.9191C29.0031 49.1591 30.4181 49.2801 31.8331 49.2811C32.6231 49.2811 33.4291 49.2811 34.2271 49.1711C38.2621 48.7922 42.139 47.4133 45.5071 45.1591L46.3211 46.2091C46.4703 46.4012 46.6697 46.5484 46.8972 46.6345C47.1247 46.7206 47.3716 46.7423 47.6106 46.6971C47.8497 46.6519 48.0716 46.5417 48.252 46.3785C48.4324 46.2153 48.5643 46.0055 48.6331 45.7721C49.3136 43.542 49.9836 41.3086 50.6431 39.0721C50.7091 38.8547 50.718 38.624 50.6689 38.4021C50.6199 38.1803 50.5145 37.9748 50.363 37.8055C50.2115 37.6362 50.0189 37.5088 49.8038 37.4355C49.5888 37.3622 49.3585 37.3456 49.1351 37.3871V37.3891ZM27.6221 17.5091L28.4501 17.4121C29.5211 17.2767 30.5987 17.2003 31.6781 17.1831C32.7691 17.135 33.8576 17.3248 34.868 17.7394C35.8783 18.154 36.7864 18.7835 37.5291 19.5841C38.1904 20.2378 38.708 21.0222 39.049 21.8873C39.3899 22.7524 39.5466 23.6791 39.5091 24.6081C39.5091 27.3191 38.7261 29.0401 37.2191 30.4141C35.6415 31.6918 33.6464 32.3395 31.6191 32.2321C30.463 32.2543 29.313 32.0589 28.2291 31.6561L27.6221 31.4261V17.5091Z" fill="#A1C441"/>
</svg>
