<svg width="97" height="97" viewBox="0 0 97 97" fill="none" xmlns="http://www.w3.org/2000/svg">
<mask id="mask0_420_4370" style="mask-type:alpha" maskUnits="userSpaceOnUse" x="0" y="0" width="97" height="97">
<rect width="97" height="97" rx="21.5556" fill="#CE5434"/>
</mask>
<g mask="url(#mask0_420_4370)">
<rect width="97" height="97" rx="21.5556" fill="#CA6982"/>
</g>
<g clip-path="url(#clip0_420_4370)">
<path d="M48.1497 19.0229C40.3819 19.0229 32.9322 22.1087 27.4396 27.6014C21.9469 33.0941 18.8611 40.5437 18.8611 48.3115C18.8576 52.1588 19.6127 55.9689 21.0834 59.524C22.554 63.079 24.7113 66.3092 27.4317 69.0296C30.1521 71.75 33.3822 73.9073 36.9373 75.3779C40.4923 76.8485 44.3025 77.6037 48.1497 77.6001C51.9947 77.6001 55.802 76.8424 59.3539 75.3702C62.9059 73.8979 66.1328 71.7401 68.8504 69.0201C71.5679 66.3 73.7228 63.0711 75.1917 59.5178C76.6607 55.9645 77.4149 52.1565 77.4114 48.3115C77.4114 40.5484 74.3293 33.1028 68.8425 27.6109C63.3556 22.119 55.9129 19.0301 48.1497 19.0229ZM48.1497 72.6963C41.7182 72.6963 35.5502 70.1413 31.0024 65.5936C26.4546 61.0458 23.8997 54.8778 23.8997 48.4463C23.8819 45.239 24.5004 42.0601 25.7195 39.0935C26.9386 36.127 28.7341 33.4317 31.002 31.1638C33.2699 28.8959 35.9652 27.1005 38.9317 25.8813C41.8983 24.6622 45.0772 24.0437 48.2845 24.0615C54.7283 24.0971 60.8961 26.6819 65.44 31.2511C69.984 35.8203 72.5345 42.0023 72.5345 48.4463C72.4991 54.8669 69.9328 61.0144 65.3927 65.5545C60.8526 70.0946 54.705 72.6609 48.2845 72.6963" fill="white"/>
<path d="M61.3525 56.7451L61.0831 57.0954C59.5239 59.0232 57.5532 60.5779 55.3154 61.6455C53.0775 62.7132 50.6292 63.2667 48.1498 63.2657C45.6661 63.2688 43.2131 62.7163 40.9706 61.6487C38.7281 60.5811 36.7528 59.0253 35.1895 57.0954L34.92 56.7451L31.9292 59.736L32.1717 60.0054C34.1255 62.346 36.5688 64.2298 39.3294 65.5239C42.09 66.8181 45.1008 67.4912 48.1498 67.4959C51.1941 67.4873 54.1997 66.8123 56.9554 65.5182C59.711 64.2242 62.15 62.3425 64.1009 60.0054L64.3434 59.736L61.3525 56.7451Z" fill="white"/>
<path d="M47.0989 39.6896C47.0989 45.4018 38.5845 50.4674 38.0186 50.4674C37.4528 50.4674 28.9114 45.5096 28.9114 39.6896C28.9114 38.3032 29.4621 36.9737 30.4424 35.9934C31.4227 35.0131 32.7523 34.4624 34.1386 34.4624C34.8705 34.459 35.5949 34.6109 36.2637 34.9082C36.9325 35.2055 37.5307 35.6413 38.0186 36.1868C38.4991 35.6392 39.092 35.2017 39.757 34.9041C40.4219 34.6065 41.1432 34.4558 41.8717 34.4624C43.258 34.4624 44.5876 35.0131 45.5679 35.9934C46.5482 36.9737 47.0989 38.3032 47.0989 39.6896Z" fill="white"/>
<path d="M67.3073 39.6896C67.3073 45.4018 58.7659 50.4674 58.2 50.4674C57.6342 50.4674 49.1198 45.5096 49.1198 39.6896C49.1198 38.3032 49.6705 36.9737 50.6508 35.9934C51.6311 35.0131 52.9606 34.4624 54.347 34.4624C55.0754 34.4558 55.7967 34.6065 56.4617 34.9041C57.1266 35.2017 57.7196 35.6392 58.2 36.1868C58.688 35.6413 59.2861 35.2055 59.955 34.9082C60.6238 34.6109 61.3481 34.459 62.08 34.4624C63.4664 34.4624 64.7959 35.0131 65.7762 35.9934C66.7565 36.9737 67.3073 38.3032 67.3073 39.6896Z" fill="white"/>
</g>
<defs>
<clipPath id="clip0_420_4370">
<rect width="58.5503" height="58.5772" fill="white" transform="translate(18.8611 19.0229)"/>
</clipPath>
</defs>
</svg>
