<svg width="97" height="97" viewBox="0 0 97 97" fill="none" xmlns="http://www.w3.org/2000/svg">
<mask id="mask0_420_4346" style="mask-type:alpha" maskUnits="userSpaceOnUse" x="0" y="0" width="97" height="97">
<rect width="97" height="97" rx="21.5556" fill="#CE5434"/>
</mask>
<g mask="url(#mask0_420_4346)">
<rect width="97" height="97" rx="21.5556" fill="#912F46"/>
<path d="M47.9068 18.8611C44.0596 18.8576 40.2494 19.6127 36.6943 21.0833C33.1393 22.554 29.9091 24.7112 27.1887 27.4316C24.4683 30.152 22.3111 33.3822 20.8404 36.9373C19.3698 40.4923 18.6146 44.3025 18.6182 48.1497C18.6182 51.9947 19.3759 55.802 20.8482 59.3539C22.3204 62.9059 24.4782 66.1328 27.1982 68.8504C29.9183 71.5679 33.1472 73.7227 36.7005 75.1917C40.2538 76.6607 44.0618 77.4149 47.9068 77.4114C55.6675 77.4114 63.1103 74.3285 68.5979 68.8408C74.0855 63.3532 77.1685 55.9104 77.1685 48.1497C77.172 44.3048 76.4177 40.4968 74.9488 36.9435C73.4798 33.3902 71.325 30.1612 68.6074 27.4412C65.8899 24.7211 62.6629 22.5633 59.111 21.0911C55.559 19.6189 51.7518 18.8611 47.9068 18.8611ZM47.9068 72.9386C44.6492 72.9422 41.4229 72.3036 38.4122 71.0594C35.4016 69.8152 32.6657 67.9898 30.361 65.6876C28.0563 63.3854 26.2279 60.6515 24.9805 57.6423C23.733 54.633 23.0909 51.4073 23.0909 48.1497C23.0909 44.8921 23.733 41.6665 24.9805 38.6572C26.2279 35.6479 28.0563 32.914 30.361 30.6118C32.6657 28.3096 35.4016 26.4842 38.4122 25.2401C41.4229 23.9959 44.6492 23.3573 47.9068 23.3609C51.1631 23.3573 54.3881 23.996 57.3973 25.2405C60.4064 26.485 63.1405 28.3109 65.4431 30.6134C67.7457 32.916 69.5714 35.6501 70.8159 38.6592C72.0604 41.6684 72.6992 44.8934 72.6957 48.1497C72.6957 54.7242 70.084 61.0293 65.4352 65.6781C60.7864 70.3269 54.4812 72.9386 47.9068 72.9386Z" fill="white"/>
<path d="M38.0721 45.1591C36.8429 45.1591 35.6641 44.6708 34.795 43.8017C33.9259 42.9326 33.4376 41.7538 33.4376 40.5247C33.4341 39.9138 33.5513 39.3083 33.7826 38.7429C34.0139 38.1775 34.3547 37.6634 34.7854 37.2302C35.2161 36.7969 35.7282 36.4532 36.2923 36.2186C36.8563 35.984 37.4612 35.8633 38.0721 35.8633C39.3083 35.8633 40.494 36.3544 41.3681 37.2286C42.2423 38.1027 42.7334 39.2884 42.7334 40.5247C42.7263 41.7563 42.2321 42.935 41.3587 43.8033C40.4853 44.6717 39.3037 45.1591 38.0721 45.1591Z" fill="white"/>
<path d="M57.7146 45.1591C56.4854 45.1591 55.3067 44.6708 54.4375 43.8017C53.5684 42.9326 53.0801 41.7538 53.0801 40.5247C53.0766 39.9138 53.1938 39.3083 53.4251 38.7429C53.6564 38.1775 53.9973 37.6634 54.428 37.2302C54.8587 36.7969 55.3708 36.4532 55.9348 36.2186C56.4988 35.984 57.1037 35.8633 57.7146 35.8633C58.9509 35.8633 60.1365 36.3544 61.0107 37.2286C61.8848 38.1027 62.376 39.2884 62.376 40.5247C62.3688 41.7563 61.8746 42.935 61.0012 43.8033C60.1278 44.6717 58.9462 45.1591 57.7146 45.1591Z" fill="white"/>
<path d="M61.0557 56.3406L60.7593 56.6909C59.2192 58.6238 57.2649 60.1865 55.0405 61.2637C52.8161 62.3409 50.3783 62.9052 47.9068 62.915C45.4376 62.9171 42.9993 62.3664 40.7707 61.3034C38.542 60.2403 36.5796 58.6919 35.0273 56.7717L34.7579 56.4214L31.7671 59.4122L32.0096 59.6817C33.9586 62.0034 36.3909 63.8718 39.1366 65.1562C41.8824 66.4407 44.8755 67.1103 47.9068 67.1184C50.9339 67.1082 53.9223 66.4375 56.6634 65.1531C59.4045 63.8686 61.8322 62.0014 63.7771 59.6817L64.0196 59.4122L61.0557 56.3406Z" fill="white"/>
</g>
</svg>
