<svg width="97" height="97" viewBox="0 0 97 97" fill="none" xmlns="http://www.w3.org/2000/svg">
<mask id="mask0_420_4358" style="mask-type:alpha" maskUnits="userSpaceOnUse" x="0" y="0" width="97" height="97">
<rect width="97" height="97" rx="21.5556" fill="#CE5434"/>
</mask>
<g mask="url(#mask0_420_4358)">
<rect width="97" height="97" rx="21.5556" fill="#A1C441"/>
</g>
<g clip-path="url(#clip0_420_4358)">
<path d="M49.0386 19.0229C41.2708 19.0229 33.8211 22.1087 28.3285 27.6014C22.8358 33.0941 19.75 40.5437 19.75 48.3115C19.7465 52.1588 20.5016 55.9689 21.9723 59.524C23.4429 63.079 25.6001 66.3092 28.3205 69.0296C31.041 71.75 34.2711 73.9073 37.8262 75.3779C41.3812 76.8485 45.1914 77.6037 49.0386 77.6001C52.8836 77.6001 56.6909 76.8424 60.2428 75.3702C63.7947 73.8979 67.0217 71.7401 69.7393 69.0201C72.4568 66.3 74.6117 63.0711 76.0806 59.5178C77.5496 55.9645 78.3038 52.1565 78.3003 48.3115C78.3003 40.5484 75.2182 33.1028 69.7314 27.6109C64.2445 22.119 56.8018 19.0301 49.0386 19.0229ZM49.0386 73.1004C45.781 73.104 42.5547 72.4654 39.5441 71.2212C36.5334 69.9771 33.7975 68.1517 31.4928 65.8494C29.1881 63.5472 27.3598 60.8133 26.1123 57.8041C24.8649 54.7948 24.2228 51.5691 24.2228 48.3115C24.2228 45.054 24.8649 41.8283 26.1123 38.819C27.3598 35.8097 29.1881 33.0758 31.4928 30.7736C33.7975 28.4714 36.5334 26.646 39.5441 25.4019C42.5547 24.1577 45.781 23.5191 49.0386 23.5227C55.6131 23.5227 61.9182 26.1343 66.567 30.7831C71.2158 35.432 73.8275 41.7371 73.8275 48.3115C73.8275 54.886 71.2158 61.1911 66.567 65.84C61.9182 70.4888 55.6131 73.1004 49.0386 73.1004Z" fill="white"/>
<path d="M39.0153 45.455C37.7812 45.4479 36.5996 44.9545 35.727 44.0819C34.8543 43.2092 34.361 42.0277 34.3539 40.7936C34.361 39.562 34.8553 38.3833 35.7287 37.5149C36.6021 36.6466 37.7837 36.1592 39.0153 36.1592C40.2444 36.1592 41.4232 36.6474 42.2923 37.5166C43.1615 38.3857 43.6497 39.5645 43.6497 40.7936C43.6497 42.0252 43.1623 43.2068 42.294 44.0802C41.4256 44.9536 40.2469 45.4479 39.0153 45.455Z" fill="white"/>
<path d="M58.6578 39.5811C60.4143 39.5851 62.15 39.9617 63.7503 40.6858C63.6048 39.4379 63.0055 38.287 62.0664 37.4523C61.1274 36.6176 59.9142 36.1573 58.6578 36.1592C57.4014 36.1573 56.1882 36.6176 55.2491 37.4523C54.3101 38.287 53.7108 39.4379 53.5653 40.6858C55.1648 39.9593 56.901 39.5827 58.6578 39.5811Z" fill="white"/>
<path d="M62.6725 55.6938L62.43 56.0441C60.9935 58.0461 59.1279 59.702 56.9696 60.8907C54.8112 62.0794 52.4146 62.771 49.9547 62.9149C47.595 63.0762 45.2291 62.708 43.03 61.8372L41.5211 65.771C44.2921 66.8386 47.2601 67.298 50.2242 67.1183C53.2498 66.9216 56.1962 66.0676 58.858 64.6157C61.5198 63.1638 63.833 61.149 65.6364 58.7116L65.825 58.4152L62.6725 55.6938Z" fill="white"/>
</g>
<defs>
<clipPath id="clip0_420_4358">
<rect width="58.5503" height="58.5772" fill="white" transform="translate(19.75 19.0229)"/>
</clipPath>
</defs>
</svg>
