<svg width="15" height="20" viewBox="0 0 15 20" fill="none" xmlns="http://www.w3.org/2000/svg">
<path opacity="0.3" d="M2.04808 17.3714H1.6C0.716344 17.3714 0 16.6551 0 15.7714V15.7714C0 14.8878 0.716344 14.1714 1.6 14.1714H2.04808V12.5429H1.61428C0.722739 12.5429 0 11.8201 0 10.9286V10.9286C0 10.037 0.722739 9.31429 1.61428 9.31429H2.04808V2C2.04808 0.895432 2.94351 0 4.04808 0H7.67308C10.0962 0 11.9231 0.571428 13.1539 1.71429C14.3846 2.85714 15 4.4 15 6.34286C15 7.27619 14.8462 8.12381 14.5385 8.88571C14.2308 9.64762 13.7692 10.3048 13.1539 10.8571C12.5385 11.3905 11.7692 11.8095 10.8462 12.1143C9.94231 12.4 8.88462 12.5429 7.67308 12.5429H6.17308V14.1714H9.41923C10.3029 14.1714 11.0192 14.8878 11.0192 15.7714V15.7714C11.0192 16.6551 10.3029 17.3714 9.41923 17.3714H6.17308V18C6.17308 19.1046 5.27765 20 4.17308 20H4.04808C2.94351 20 2.04808 19.1046 2.04808 18V17.3714ZM7.67308 9.31429C8.76923 9.31429 9.57692 9.07619 10.0962 8.6C10.6154 8.10476 10.875 7.35238 10.875 6.34286C10.875 5.37143 10.6154 4.6381 10.0962 4.14286C9.57692 3.64762 8.76923 3.4 7.67308 3.4H6.17308V9.31429H7.67308Z" fill="#212121"/>
</svg>
