<svg width="160" height="50" viewBox="0 0 160 50" fill="none" xmlns="http://www.w3.org/2000/svg">
<path d="M155 0H4.99997C2.23855 0 -3.05176e-05 2.23858 -3.05176e-05 5V45C-3.05176e-05 47.7614 2.23855 50 4.99997 50H155C157.761 50 160 47.7614 160 45V5C160 2.23858 157.761 0 155 0Z" fill="black"/>
<path d="M55.6045 14.3921C55.6045 12.9069 56.0032 11.7452 56.8007 10.907C57.5983 10.0647 58.6277 9.64355 59.8891 9.64355C60.7151 9.64355 61.4597 9.84091 62.123 10.2356C62.7862 10.6303 63.2908 11.1816 63.6367 11.8897C63.9866 12.5936 64.1616 13.3931 64.1616 14.2884C64.1616 15.1958 63.9785 16.0075 63.6122 16.7236C63.2461 17.4398 62.7272 17.983 62.0558 18.3533C61.3845 18.7195 60.6602 18.9026 59.883 18.9026C59.0407 18.9026 58.288 18.6991 57.6247 18.2923C56.9615 17.8854 56.459 17.3299 56.1172 16.626C55.7753 15.922 55.6045 15.1774 55.6045 14.3921ZM56.8252 14.4104C56.8252 15.4888 57.1141 16.3391 57.6918 16.9616C58.2737 17.5801 59.0021 17.8894 59.877 17.8894C60.7681 17.8894 61.5005 17.5761 62.0742 16.9495C62.652 16.3229 62.9408 15.4338 62.9408 14.2823C62.9408 13.5539 62.8168 12.9191 62.5686 12.3779C62.3245 11.8327 61.9643 11.4115 61.4882 11.1145C61.0162 10.8134 60.4852 10.6628 59.8952 10.6628C59.057 10.6628 58.3347 10.9517 57.7285 11.5295C57.1262 12.1033 56.8252 13.0635 56.8252 14.4104ZM64.9612 12.2681H70.2285V13.1775H68.1411V18.75H67.0486V13.1775H64.9612V12.2681ZM71.2722 12.2681H72.3708V15.0696C72.7207 15.0696 72.9648 15.0025 73.1032 14.8681C73.2457 14.7339 73.4532 14.3433 73.7258 13.6963C73.9415 13.1836 74.1165 12.8459 74.2507 12.6831C74.385 12.5204 74.5396 12.4105 74.7146 12.3535C74.8896 12.2966 75.1703 12.2681 75.5568 12.2681H75.7766V13.1775L75.4715 13.1714C75.1825 13.1714 74.9973 13.2141 74.916 13.2995C74.8306 13.3891 74.7003 13.6556 74.5253 14.0991C74.3586 14.5223 74.206 14.8153 74.0676 14.978C73.9292 15.1408 73.7156 15.2893 73.4267 15.4236C73.8987 15.5498 74.3626 15.9891 74.8183 16.742L76.0207 18.75H74.8122L73.6403 16.742C73.4003 16.3391 73.1907 16.0746 73.0117 15.9485C72.8327 15.8183 72.6191 15.7531 72.3708 15.7531V18.75H71.2722V12.2681ZM76.7471 21.2341V12.2681H77.748V13.1104C77.984 12.7808 78.2506 12.5346 78.5476 12.3718C78.8446 12.205 79.2047 12.1216 79.6278 12.1216C80.1813 12.1216 80.6696 12.264 81.0927 12.5489C81.516 12.8336 81.8353 13.2365 82.051 13.7574C82.2667 14.2741 82.3745 14.8418 82.3745 15.4603C82.3745 16.1235 82.2545 16.7216 82.0143 17.2546C81.7783 17.7836 81.4325 18.1905 80.9767 18.4754C80.5251 18.7561 80.0491 18.8965 79.5486 18.8965C79.1823 18.8965 78.8527 18.8191 78.5598 18.6645C78.2708 18.5099 78.0328 18.3146 77.8457 18.0786V21.2341H76.7471ZM77.742 15.5456C77.742 16.3798 77.9108 16.9963 78.2485 17.395C78.5862 17.7938 78.9952 17.9931 79.4753 17.9931C79.9636 17.9931 80.3807 17.7876 80.7266 17.3768C81.0765 16.9616 81.2515 16.3208 81.2515 15.4541C81.2515 14.6281 81.0806 14.0096 80.7387 13.5986C80.401 13.1876 79.9961 12.9821 79.5241 12.9821C79.0562 12.9821 78.6412 13.2019 78.279 13.6414C77.921 14.0768 77.742 14.7115 77.742 15.5456ZM83.2961 15.509C83.2961 14.3086 83.6297 13.4196 84.2971 12.8418C84.8546 12.3617 85.5341 12.1216 86.3357 12.1216C87.2267 12.1216 87.9551 12.4146 88.5207 13.0005C89.0863 13.5824 89.3691 14.388 89.3691 15.4175C89.3691 16.2516 89.243 16.9088 88.9907 17.3889C88.7425 17.865 88.3783 18.2353 87.8982 18.4998C87.4221 18.7643 86.9012 18.8965 86.3357 18.8965C85.4282 18.8965 84.6938 18.6055 84.1323 18.0236C83.5748 17.4419 83.2961 16.6036 83.2961 15.509ZM84.4252 15.509C84.4252 16.3391 84.6063 16.9616 84.9685 17.3768C85.3306 17.7876 85.7863 17.9931 86.3357 17.9931C86.881 17.9931 87.3346 17.7856 87.6967 17.3706C88.0588 16.9556 88.24 16.3229 88.24 15.4724C88.24 14.6709 88.0568 14.0645 87.6906 13.6536C87.3285 13.2385 86.8768 13.031 86.3357 13.031C85.7863 13.031 85.3306 13.2365 84.9685 13.6475C84.6063 14.0584 84.4252 14.679 84.4252 15.509ZM90.6631 12.2681H91.7617V17.2119L94.8073 12.2681H95.9915V18.75H94.8928V13.8366L91.8471 18.75H90.6631V12.2681ZM94.4777 9.81445H95.2285C95.1675 10.3231 94.9802 10.7137 94.667 10.9863C94.3577 11.259 93.9447 11.3953 93.428 11.3953C92.9071 11.3953 92.4901 11.261 92.1767 10.9924C91.8675 10.7198 91.6823 10.3272 91.6213 9.81445H92.3721C92.429 10.0912 92.541 10.2987 92.7077 10.437C92.8786 10.5713 93.1065 10.6384 93.3913 10.6384C93.721 10.6384 93.9691 10.5733 94.136 10.4431C94.3068 10.3088 94.4208 10.0993 94.4777 9.81445ZM97.0535 12.2681H102.321V13.1775H100.233V18.75H99.1408V13.1775H97.0535V12.2681ZM107.661 16.6626L108.797 16.803C108.618 17.4663 108.286 17.981 107.802 18.3471C107.317 18.7134 106.699 18.8965 105.946 18.8965C104.998 18.8965 104.245 18.6055 103.688 18.0236C103.135 17.4378 102.858 16.6179 102.858 15.564C102.858 14.4735 103.139 13.6271 103.7 13.0249C104.262 12.4227 104.99 12.1216 105.885 12.1216C106.752 12.1216 107.46 12.4166 108.009 13.0066C108.559 13.5966 108.833 14.4266 108.833 15.4969C108.833 15.5619 108.831 15.6596 108.827 15.7898H103.993C104.034 16.5019 104.235 17.0471 104.597 17.4255C104.959 17.804 105.411 17.9931 105.952 17.9931C106.355 17.9931 106.699 17.8874 106.984 17.6758C107.269 17.4643 107.494 17.1265 107.661 16.6626ZM104.054 14.8865H107.674C107.625 14.3413 107.486 13.9323 107.258 13.6596C106.909 13.2365 106.455 13.0249 105.897 13.0249C105.393 13.0249 104.968 13.1938 104.622 13.5315C104.28 13.8693 104.091 14.3209 104.054 14.8865ZM113.667 12.2681H116.2C116.823 12.2681 117.285 12.321 117.586 12.4268C117.891 12.5285 118.151 12.7178 118.367 12.9944C118.587 13.2711 118.696 13.6028 118.696 13.9893C118.696 14.2985 118.631 14.5691 118.501 14.801C118.375 15.0289 118.184 15.2201 117.927 15.3748C118.233 15.4765 118.485 15.6678 118.684 15.9485C118.888 16.2251 118.989 16.5548 118.989 16.9373C118.949 17.5516 118.729 18.0074 118.33 18.3045C117.932 18.6015 117.352 18.75 116.591 18.75H113.667V12.2681ZM114.766 14.9964H115.938C116.406 14.9964 116.727 14.9719 116.902 14.9231C117.077 14.8743 117.234 14.7766 117.372 14.6301C117.51 14.4796 117.58 14.3005 117.58 14.093C117.58 13.7513 117.457 13.5131 117.213 13.3789C116.973 13.2446 116.56 13.1775 115.974 13.1775H114.766V14.9964ZM114.766 17.8466H116.212C116.835 17.8466 117.262 17.7755 117.494 17.633C117.726 17.4866 117.848 17.2364 117.86 16.8824C117.86 16.6748 117.793 16.4835 117.659 16.3086C117.525 16.1295 117.35 16.0176 117.134 15.9729C116.918 15.9241 116.572 15.8996 116.096 15.8996H114.766V17.8466Z" fill="white"/>
<path d="M67.5696 38.75H64.8181L63.7243 35.9045H58.717L57.6831 38.75H55L59.8791 26.2231H62.5537L67.5696 38.75ZM62.9126 33.794L61.1865 29.1455L59.4946 33.794H62.9126ZM68.8342 29.6753H71.073V31.0083C71.3635 30.5526 71.7566 30.1823 72.2522 29.8975C72.7477 29.6126 73.2975 29.4703 73.9013 29.4703C74.9552 29.4703 75.8496 29.8833 76.5845 30.7093C77.3193 31.5353 77.6867 32.686 77.6867 34.1614C77.6867 35.6766 77.3165 36.8559 76.5758 37.699C75.8353 38.5364 74.9381 38.9551 73.8842 38.9551C73.383 38.9551 72.9272 38.8554 72.5171 38.656C72.1126 38.4566 71.6853 38.1149 71.2353 37.6306V42.2021H68.8342V29.6753ZM71.2097 34.0589C71.2097 35.0785 71.412 35.8334 71.8163 36.3233C72.2208 36.8075 72.7136 37.0495 73.2946 37.0495C73.853 37.0495 74.3172 36.8274 74.6875 36.383C75.0577 35.933 75.2428 35.1981 75.2428 34.1785C75.2428 33.2271 75.0521 32.5208 74.6703 32.0594C74.2887 31.5979 73.8158 31.3673 73.252 31.3673C72.6652 31.3673 72.1781 31.595 71.7907 32.0508C71.4033 32.5009 71.2097 33.1701 71.2097 34.0589ZM79.5325 29.6753H81.7712V31.0083C82.0617 30.5526 82.4548 30.1823 82.9505 29.8975C83.446 29.6126 83.9957 29.4703 84.5996 29.4703C85.6535 29.4703 86.5478 29.8833 87.2827 30.7093C88.0176 31.5353 88.385 32.686 88.385 34.1614C88.385 35.6766 88.0147 36.8559 87.2741 37.699C86.5336 38.5364 85.6363 38.9551 84.5825 38.9551C84.0812 38.9551 83.6255 38.8554 83.2153 38.656C82.8109 38.4566 82.3836 38.1149 81.9336 37.6306V42.2021H79.5325V29.6753ZM81.908 34.0589C81.908 35.0785 82.1102 35.8334 82.5146 36.3233C82.9191 36.8075 83.4118 37.0495 83.9928 37.0495C84.5512 37.0495 85.0155 36.8274 85.3857 36.383C85.756 35.933 85.9411 35.1981 85.9411 34.1785C85.9411 33.2271 85.7503 32.5208 85.3686 32.0594C84.987 31.5979 84.5141 31.3673 83.9502 31.3673C83.3635 31.3673 82.8763 31.595 82.489 32.0508C82.1016 32.5009 81.908 33.1701 81.908 34.0589ZM96.1437 34.1443V32.0338H101.595V37.0239C101.066 37.5366 100.297 37.9895 99.2883 38.3826C98.2857 38.77 97.2688 38.9636 96.2377 38.9636C94.9276 38.9636 93.7853 38.6901 92.8112 38.1433C91.8371 37.5908 91.1051 36.8046 90.6152 35.7849C90.1253 34.7595 89.8803 33.6459 89.8803 32.4439C89.8803 31.1394 90.1537 29.98 90.7006 28.9661C91.2475 27.9521 92.0478 27.1745 93.1017 26.6333C93.905 26.2175 94.9047 26.0095 96.1011 26.0095C97.6562 26.0095 98.8696 26.3371 99.7412 26.9923C100.618 27.6416 101.182 28.5416 101.433 29.6924L98.9208 30.1624C98.7442 29.5471 98.411 29.0629 97.9211 28.7098C97.4368 28.3509 96.8302 28.1714 96.1011 28.1714C94.9958 28.1714 94.1157 28.5218 93.4607 29.2224C92.8112 29.9231 92.4866 30.9628 92.4866 32.3413C92.4866 33.8281 92.817 34.9446 93.4777 35.6909C94.1386 36.4315 95.0045 36.8018 96.0755 36.8018C96.6052 36.8018 97.135 36.6993 97.6647 36.4941C98.2002 36.2834 98.6588 36.0299 99.0405 35.7336V34.1443H96.1437ZM105.714 32.4439L103.535 32.0508C103.78 31.1735 104.202 30.5241 104.8 30.1025C105.398 29.681 106.287 29.4703 107.466 29.4703C108.537 29.4703 109.334 29.5984 109.858 29.8548C110.382 30.1054 110.75 30.4273 110.961 30.8203C111.177 31.2076 111.285 31.9226 111.285 32.9651L111.26 35.7679C111.26 36.5654 111.297 37.155 111.371 37.5366C111.451 37.9126 111.596 38.317 111.807 38.75H109.431C109.368 38.5905 109.292 38.3541 109.2 38.0408C109.161 37.8984 109.132 37.8044 109.115 37.7588C108.705 38.1575 108.266 38.4566 107.799 38.656C107.332 38.8554 106.833 38.9551 106.304 38.9551C105.369 38.9551 104.632 38.7016 104.091 38.1946C103.555 37.6876 103.287 37.0468 103.287 36.272C103.287 35.7593 103.41 35.3035 103.655 34.9048C103.9 34.5004 104.241 34.1928 104.68 33.9819C105.124 33.7655 105.762 33.5775 106.594 33.418C107.716 33.2073 108.494 33.0106 108.927 32.8284V32.5891C108.927 32.1276 108.813 31.8001 108.585 31.6065C108.357 31.4071 107.927 31.3074 107.295 31.3074C106.868 31.3074 106.534 31.3929 106.295 31.5638C106.056 31.7289 105.862 32.0223 105.714 32.4439ZM108.927 34.3921C108.619 34.4946 108.132 34.6171 107.466 34.7595C106.799 34.9019 106.363 35.0415 106.158 35.1783C105.845 35.4004 105.688 35.6824 105.688 36.0241C105.688 36.3603 105.814 36.6508 106.064 36.8958C106.315 37.1408 106.634 37.2631 107.021 37.2631C107.454 37.2631 107.867 37.1208 108.26 36.836C108.551 36.6195 108.742 36.3546 108.833 36.0413C108.896 35.8361 108.927 35.446 108.927 34.8706V34.3921ZM113.661 38.75V26.2231H116.062V38.75H113.661ZM118.531 38.75V26.2231H120.933V38.75H118.531ZM128.657 35.8619L131.05 36.2634C130.742 37.1408 130.255 37.81 129.589 38.2715C128.927 38.7273 128.099 38.9551 127.102 38.9551C125.524 38.9551 124.356 38.4395 123.599 37.4085C123 36.5825 122.701 35.54 122.701 34.281C122.701 32.7771 123.094 31.6008 123.881 30.752C124.667 29.8975 125.661 29.4703 126.862 29.4703C128.212 29.4703 129.279 29.9174 130.059 30.8118C130.839 31.7005 131.212 33.0648 131.177 34.9048H125.162C125.18 35.6169 125.374 36.1723 125.744 36.571C126.114 36.9641 126.575 37.1606 127.127 37.1606C127.504 37.1606 127.82 37.0581 128.076 36.853C128.332 36.648 128.526 36.3175 128.657 35.8619ZM128.794 33.435C128.776 32.7401 128.597 32.2131 128.255 31.8543C127.914 31.4896 127.497 31.3074 127.007 31.3074C126.484 31.3074 126.051 31.4983 125.709 31.8799C125.367 32.2615 125.2 32.78 125.205 33.435H128.794ZM135.442 38.75H133.041V29.6753H135.271V30.9656C135.652 30.356 135.995 29.9544 136.296 29.7608C136.604 29.567 136.951 29.4703 137.339 29.4703C137.886 29.4703 138.412 29.6211 138.92 29.9231L138.176 32.0166C137.771 31.7545 137.396 31.6235 137.049 31.6235C136.712 31.6235 136.427 31.7175 136.194 31.9055C135.96 32.0878 135.775 32.421 135.639 32.9053C135.507 33.3895 135.442 34.4035 135.442 35.9473V38.75ZM138.826 29.6753H141.38L143.551 36.1181L145.67 29.6753H148.156L144.952 38.4083L144.38 39.989C144.169 40.5188 143.967 40.9233 143.774 41.2024C143.585 41.4815 143.366 41.7065 143.115 41.8775C142.87 42.054 142.565 42.1908 142.201 42.2876C141.842 42.3845 141.435 42.4329 140.979 42.4329C140.517 42.4329 140.065 42.3845 139.62 42.2876L139.406 40.4078C139.782 40.4818 140.121 40.5188 140.424 40.5188C140.981 40.5188 141.395 40.3536 141.662 40.0233C141.93 39.6985 142.135 39.2826 142.277 38.7756L138.826 29.6753Z" fill="white"/>
<path d="M35.854 8.7522H21.6438C16.5938 8.7522 12.5 12.846 12.5 17.896V32.1061C12.5 37.1563 16.5938 41.25 21.6438 41.25H35.854C40.9041 41.25 44.9977 37.1563 44.9977 32.1061V17.896C44.9977 12.846 40.9041 8.7522 35.854 8.7522Z" fill="#C8102E"/>
<path d="M18.9346 25.0012H19.7966V29.2533H18.9346V27.5257H16.9881V29.2533H16.1261V25.0012H16.9881V26.7116H18.9346V25.0012ZM23.7921 27.4333C23.7921 28.1176 23.4499 28.4938 22.8274 28.4938C22.2048 28.4938 21.8559 28.1176 21.8559 27.3957V25.0012H20.9938V27.43C20.9938 28.6238 21.6574 29.308 22.8137 29.308C23.9699 29.308 24.6542 28.6238 24.6542 27.3923V25.0012H23.7921V27.4333ZM33.7536 27.9226L32.7888 25.0012H32.0807L31.1229 27.926L30.1822 25.0012H29.2654L30.7466 29.2533H31.4616L32.4228 26.4618L33.3874 29.2533H34.1093L35.5904 25.0012H34.6942L33.7536 27.9226ZM37.1333 27.4197H38.7034V26.6501H37.1333V25.7811H39.4116V25.0012H36.2849V29.243H39.4937V28.4767H37.1333V27.4197ZM40.5199 29.243H41.3717V25.0012H40.5199V29.243ZM26.3577 28.3638L25.9712 29.2465H25.0919L26.9494 25.0012H27.7089L29.5733 29.2465H28.6838L28.3178 28.3673L26.3577 28.3638ZM26.6793 27.5976H27.9757L27.3258 26.0787L26.6793 27.5976Z" fill="white"/>
<path d="M28.7488 19.5928C27.3147 19.5919 25.9397 19.0218 24.9256 18.0078C23.9116 16.9937 23.3415 15.6187 23.3406 14.1846H24.1033C24.1033 15.4166 24.5928 16.5982 25.4641 17.4693C26.3352 18.3406 27.5168 18.8299 28.7488 18.8299C29.9809 18.8299 31.1626 18.3406 32.0337 17.4693C32.9048 16.5982 33.3943 15.4166 33.3943 14.1846H34.1572C34.1562 15.6187 33.5862 16.9937 32.5721 18.0078C31.5581 19.0218 30.183 19.5919 28.7488 19.5928Z" fill="white"/>
</svg>
