<svg width="160" height="50" viewBox="0 0 160 50" fill="none" xmlns="http://www.w3.org/2000/svg">
<path fill-rule="evenodd" clip-rule="evenodd" d="M6.41 0H153.59C155.819 0 156.628 0.2325 157.443 0.6675C158.258 1.10375 158.896 1.7425 159.333 2.5575C159.768 3.3725 160 4.18125 160 6.41V43.59C160 45.8188 159.768 46.6275 159.333 47.4425C158.906 48.2477 158.248 48.9062 157.443 49.3325C156.628 49.7675 155.819 50 153.59 50H6.41C4.18125 50 3.3725 49.7675 2.5575 49.3325C1.75226 48.9062 1.09376 48.2477 0.6675 47.4425C0.2325 46.6275 0 45.8188 0 43.59V6.41C0 4.18125 0.2325 3.3725 0.6675 2.5575C1.09376 1.75226 1.75226 1.09376 2.5575 0.6675C3.3725 0.2325 4.18125 0 6.41 0Z" fill="black"/>
<path fill-rule="evenodd" clip-rule="evenodd" d="M30.6425 24.4961C30.6439 25.7559 31.0159 26.9874 31.7123 28.0372C32.4087 29.087 33.3986 29.9087 34.5587 30.3998C34.103 31.8821 33.4153 33.2828 32.5212 34.5498C31.3212 36.3473 30.0637 38.1023 28.065 38.1348C26.125 38.1798 25.4725 36.9923 23.2462 36.9923C20.9987 36.9923 20.3037 38.1023 18.4425 38.1798C16.54 38.2511 15.0862 36.2636 13.8412 34.4848C11.355 30.8536 9.41872 24.2473 12.015 19.7536C12.6141 18.6766 13.4821 17.7731 14.5343 17.1313C15.5864 16.4894 16.7869 16.1311 18.0187 16.0911C19.9225 16.0523 21.69 17.3773 22.8612 17.3773C24.0087 17.3773 26.195 15.7923 28.4487 16.0273C29.5054 16.0598 30.5398 16.3386 31.4697 16.8414C32.3996 17.3442 33.1992 18.0572 33.805 18.9236C32.8509 19.5107 32.0608 20.3293 31.5079 21.3036C30.955 22.2778 30.6573 23.376 30.6425 24.4961ZM26.9775 13.6386C26.4558 14.2876 25.7935 14.8097 25.0406 15.1654C24.2877 15.5212 23.4639 15.7014 22.6312 15.6923C22.5784 14.8762 22.6869 14.0576 22.9505 13.2833C23.2141 12.509 23.6276 11.7943 24.1675 11.1798C25.2721 9.92296 26.8095 9.12814 28.4737 8.9536C28.6038 10.6505 28.067 12.3312 26.9775 13.6386ZM54.1762 33.6761H47.8225L46.2962 38.1823H43.6062L49.625 21.5148H52.42L58.4375 38.1823H55.7012L54.1762 33.6761ZM48.4812 31.5973H53.5175L51.035 24.2848H50.9662L48.4812 31.5973ZM71.4337 32.1048C71.4337 35.8798 69.4125 38.3073 66.3625 38.3073C65.5898 38.3476 64.8214 38.1695 64.1451 37.7935C63.4689 37.4175 62.9122 36.8587 62.5387 36.1811H62.4812V42.1998H59.9875V26.0286H62.4025V28.0498H62.4487C62.8392 27.3752 63.4053 26.8189 64.0868 26.4403C64.7682 26.0618 65.5396 25.875 66.3187 25.8998C69.4012 25.9023 71.4337 28.3398 71.4337 32.1048ZM68.87 32.1048C68.87 29.6423 67.5987 28.0261 65.6575 28.0261C63.7525 28.0261 62.47 29.6761 62.47 32.1048C62.47 34.5536 63.7525 36.1923 65.6575 36.1923C67.5987 36.1923 68.87 34.5886 68.87 32.1048ZM84.8087 32.1048C84.8087 35.8798 82.7875 38.3073 79.7375 38.3073C78.9648 38.3476 78.1964 38.1695 77.5201 37.7935C76.8439 37.4175 76.2872 36.8587 75.9137 36.1811H75.8562V42.1998H73.3612V26.0286H75.7762V28.0498H75.8225C76.213 27.3752 76.7791 26.8189 77.4605 26.4403C78.142 26.0618 78.9133 25.875 79.6925 25.8998C82.775 25.9023 84.8087 28.3398 84.8087 32.1048ZM82.245 32.1048C82.245 29.6423 80.9737 28.0261 79.0337 28.0261C77.1287 28.0261 75.8462 29.6761 75.8462 32.1048C75.8462 34.5536 77.1287 36.1923 79.0337 36.1923C80.9737 36.1923 82.245 34.5886 82.245 32.1048ZM93.6487 33.5361C93.8325 35.1886 95.4387 36.2736 97.6337 36.2736C99.7362 36.2736 101.249 35.1886 101.249 33.6973C101.249 32.4036 100.336 31.6286 98.1762 31.0973L96.0162 30.5786C92.9562 29.8386 91.535 28.4073 91.535 26.0861C91.535 23.2098 94.0412 21.2348 97.6 21.2348C101.122 21.2348 103.536 23.2098 103.617 26.0848H101.099C100.949 24.4223 99.5725 23.4186 97.5637 23.4186C95.5537 23.4186 94.1787 24.4336 94.1787 25.9136C94.1787 27.0923 95.0562 27.7848 97.205 28.3136L99.0412 28.7661C102.461 29.5748 103.881 30.9486 103.881 33.3873C103.881 36.5048 101.397 38.4586 97.4462 38.4586C93.7512 38.4586 91.255 36.5523 91.0925 33.5361H93.6487ZM109.266 23.1536V26.0286H111.576V28.0061H109.266V34.7048C109.266 35.7461 109.729 36.2298 110.744 36.2298C111.018 36.2261 111.292 36.2073 111.564 36.1736V38.1361C111.107 38.2222 110.643 38.2611 110.179 38.2523C107.717 38.2523 106.759 37.3273 106.759 34.9711V28.0061H104.992V26.0298H106.759V23.1536H109.266ZM112.916 32.1036C112.916 28.2811 115.167 25.8786 118.679 25.8786C122.201 25.8786 124.442 28.2811 124.442 32.1036C124.442 35.9386 122.214 38.3286 118.679 38.3286C115.145 38.3323 112.916 35.9398 112.916 32.1036ZM121.901 32.1036C121.901 29.4823 120.699 27.9336 118.679 27.9336C116.659 27.9336 115.457 29.4936 115.457 32.1048C115.457 34.7386 116.659 36.2748 118.679 36.2748C120.701 36.2748 121.901 34.7373 121.901 32.1048V32.1036ZM126.5 26.0286H128.879V28.0973H128.936C129.097 27.4514 129.476 26.8805 130.008 26.4808C130.541 26.0811 131.195 25.8768 131.86 25.9023C132.147 25.9011 132.434 25.9323 132.715 25.9948V28.3273C132.352 28.2164 131.973 28.1657 131.594 28.1773C131.231 28.1626 130.87 28.2264 130.535 28.3644C130.2 28.5024 129.898 28.7114 129.651 28.9769C129.404 29.2425 129.218 29.5583 129.105 29.9028C128.991 30.2472 128.954 30.6121 128.995 30.9723V38.1811H126.5V26.0286ZM144.215 34.6111C143.879 36.8173 141.731 38.3311 138.982 38.3311C135.447 38.3311 133.254 35.9636 133.254 32.1636C133.254 28.3511 135.46 25.8798 138.879 25.8798C142.241 25.8798 144.355 28.1886 144.355 31.8736V32.7286H135.772V32.8786C135.733 33.3257 135.788 33.7762 135.936 34.2001C136.084 34.624 136.32 35.0116 136.629 35.3371C136.938 35.6626 137.313 35.9186 137.729 36.0881C138.144 36.2575 138.591 36.3365 139.04 36.3198C139.629 36.375 140.221 36.2385 140.726 35.9306C141.232 35.6228 141.625 35.16 141.846 34.6111H144.215ZM135.782 30.9848H141.857C141.88 30.5828 141.819 30.1804 141.679 29.803C141.538 29.4256 141.321 29.0812 141.041 28.7917C140.762 28.5021 140.425 28.2735 140.053 28.1202C139.68 27.967 139.28 27.8924 138.877 27.9011C138.061 27.8964 137.277 28.216 136.697 28.7896C136.116 29.3632 135.787 30.1439 135.782 30.9598V30.9848ZM46.71 12.3536H47.7812C48.1351 12.3974 48.4919 12.2989 48.7732 12.0798C49.0545 11.8606 49.2372 11.5387 49.2812 11.1848C49.285 11.1473 49.2887 11.1136 49.29 11.0761C49.29 10.3373 48.735 9.85985 47.7925 9.85985C47.4176 9.80781 47.0373 9.90666 46.7353 10.1347C46.4332 10.3627 46.2339 10.7013 46.1812 11.0761L46.1775 11.1136H45C45.0204 10.7697 45.1114 10.4337 45.2673 10.1265C45.4232 9.81925 45.6406 9.54739 45.906 9.32779C46.1715 9.10819 46.4793 8.94555 46.8102 8.85C47.1412 8.75444 47.4883 8.72801 47.83 8.77235C49.4062 8.77235 50.5175 9.6561 50.5175 10.9248C50.5212 11.3507 50.3787 11.7648 50.1139 12.0983C49.8492 12.4318 49.478 12.6644 49.0625 12.7573V12.8511C50.0875 12.8961 50.8837 13.7623 50.8437 14.7873C50.8072 15.1415 50.7003 15.4848 50.5294 15.7971C50.3585 16.1094 50.1269 16.3844 49.8483 16.6061C49.5698 16.8277 49.2497 16.9916 48.907 17.0879C48.5643 17.1843 48.2058 17.2113 47.8525 17.1673C47.5061 17.2147 47.1537 17.1933 46.8156 17.1044C46.4775 17.0155 46.1602 16.8607 45.882 16.6491C45.6037 16.4375 45.3698 16.173 45.1938 15.871C45.0178 15.5689 44.9031 15.2351 44.8562 14.8886C44.8525 14.8573 44.8475 14.8286 44.845 14.7973H46.0387C46.11 15.5636 46.815 16.0573 47.8525 16.0573C48.89 16.0573 49.5675 15.5023 49.5675 14.7198C49.5675 13.9273 48.9287 13.4373 47.8137 13.4373H46.7087V12.3498H46.71V12.3536ZM52.2 15.2661C52.2 14.1773 53.0112 13.5498 54.4487 13.4623L56.0862 13.3686V12.8473C56.0862 12.2086 55.6662 11.8473 54.8487 11.8473C54.1837 11.8473 53.7225 12.0936 53.5887 12.5211H52.4337C52.5562 11.4836 53.5337 10.8161 54.905 10.8161C56.42 10.8161 57.275 11.5698 57.275 12.8473V16.9761H56.1262V16.1261H56.0325C55.8411 16.431 55.5723 16.6796 55.2534 16.8465C54.9345 17.0134 54.577 17.0926 54.2175 17.0761C53.9635 17.1026 53.7067 17.0757 53.4638 16.9969C53.2209 16.9181 52.9971 16.7893 52.8071 16.6188C52.617 16.4483 52.4647 16.2398 52.3602 16.0068C52.2556 15.7738 52.201 15.5215 52.2 15.2661ZM56.085 14.7511V14.2461L54.6087 14.3398C53.7762 14.3961 53.4 14.6773 53.4 15.2123C53.4 15.7561 53.8725 16.0723 54.5212 16.0723C54.7112 16.0914 54.9031 16.072 55.0855 16.0154C55.2679 15.9588 55.4371 15.8662 55.5829 15.7429C55.7288 15.6197 55.8484 15.4684 55.9347 15.298C56.0209 15.1276 56.072 14.9416 56.085 14.7511ZM60.4387 11.9373V16.9773H59.2462V10.9336H63.2262V11.9373H60.4387ZM70.4537 13.9523C70.4537 15.8736 69.4825 17.0773 67.9562 17.0773C67.5816 17.1034 67.2074 17.0217 66.8778 16.8418C66.5482 16.662 66.277 16.3915 66.0962 16.0623H66.0025V18.9873H64.81V10.9336H65.9587V11.9323H66.0475C66.4225 11.2386 67.1575 10.8148 67.9462 10.8323C69.4837 10.8311 70.4537 12.0311 70.4537 13.9523ZM69.2275 13.9523C69.2275 12.6761 68.6225 11.9048 67.6137 11.9048C66.61 11.9048 65.9825 12.6923 65.9825 13.9573C65.9825 15.2173 66.61 16.0048 67.61 16.0048C68.6225 16.0048 69.2275 15.2336 69.2275 13.9523ZM72.0425 19.1398V18.1148C72.1712 18.1311 72.3012 18.1386 72.4325 18.1373C72.6865 18.156 72.9386 18.0803 73.1402 17.9245C73.3418 17.7688 73.4788 17.5441 73.525 17.2936L73.6137 16.9998L71.4262 10.9336H72.725L74.2412 15.7336H74.335L75.845 10.9336H77.1087L74.8562 17.2261C74.34 18.6973 73.7675 19.1686 72.5362 19.1686C72.3713 19.1665 72.2066 19.1574 72.0425 19.1411V19.1398ZM78.0387 15.2611H79.2262C79.3425 15.7936 79.8425 16.0711 80.5412 16.0711C81.3362 16.0711 81.8237 15.7211 81.8237 15.1773C81.8237 14.5948 81.3862 14.3173 80.5412 14.3173H79.6375V13.3911H80.5262C81.2475 13.3911 81.615 13.1136 81.615 12.6098C81.615 12.1661 81.2587 11.8286 80.5262 11.8286C79.86 11.8286 79.3712 12.1111 79.295 12.5898H78.1462C78.2324 12.0416 78.5302 11.549 78.9758 11.218C79.4213 10.887 79.9789 10.744 80.5287 10.8198C81.9662 10.8198 82.7875 11.4698 82.7875 12.4898C82.7943 12.7743 82.7031 13.0525 82.5292 13.2778C82.3554 13.5031 82.1094 13.6618 81.8325 13.7273V13.8211C82.515 13.9086 83.0225 14.4936 83.015 15.1811C83.015 16.3298 82.0375 17.0911 80.5437 17.0911C79.2225 17.0861 78.15 16.4823 78.0387 15.2611ZM84.73 16.9761V10.9323H85.9125V15.0886H86.0062L88.7925 10.9311H89.975V16.9761H88.7925V12.7961H88.7037L85.9137 16.9761H84.73ZM96.4875 11.9373H94.585V16.9773H93.3912V11.9373H91.4887V10.9336H96.4887V11.9373H96.4875ZM102.912 15.3436C102.75 15.8958 102.399 16.3734 101.92 16.6928C101.441 17.0122 100.865 17.1532 100.292 17.0911C99.8944 17.1015 99.4988 17.0252 99.1332 16.8675C98.7676 16.7098 98.4407 16.4744 98.1751 16.1777C97.9095 15.881 97.7117 15.53 97.5953 15.1492C97.479 14.7684 97.4469 14.3668 97.5012 13.9723C97.4484 13.5766 97.4812 13.1741 97.5974 12.7921C97.7136 12.4101 97.9106 12.0575 98.1749 11.7583C98.4392 11.459 98.7647 11.22 99.1294 11.0574C99.4941 10.8949 99.8895 10.8126 100.289 10.8161C101.971 10.8161 102.986 11.9648 102.986 13.8636V14.2798H98.7187V14.3473C98.6997 14.5692 98.7273 14.7926 98.7999 15.0031C98.8724 15.2136 98.9883 15.4065 99.1399 15.5695C99.2916 15.7325 99.4758 15.8619 99.6805 15.9494C99.8853 16.0368 100.106 16.0804 100.329 16.0773C100.912 16.1473 101.479 15.8586 101.766 15.3448L102.912 15.3436ZM98.7187 13.3961H101.77C101.785 13.1934 101.757 12.9898 101.689 12.7984C101.62 12.607 101.513 12.432 101.373 12.2846C101.233 12.1371 101.064 12.0205 100.876 11.9422C100.689 11.8639 100.487 11.8257 100.284 11.8298C100.077 11.8272 99.8725 11.8658 99.6814 11.9436C99.4902 12.0214 99.3165 12.1367 99.1707 12.2827C99.0248 12.4287 98.9096 12.6024 98.832 12.7936C98.7544 12.9849 98.7159 13.1897 98.7187 13.3961ZM107.97 10.9323H110.695C111.877 10.9323 112.571 11.5311 112.571 12.4698C112.575 13.0823 112.15 13.6161 111.55 13.7448V13.8398C111.903 13.8625 112.234 14.0197 112.474 14.279C112.715 14.5383 112.846 14.88 112.842 15.2336C112.842 16.2886 112.049 16.9761 110.724 16.9761H107.971V10.9323H107.97ZM109.152 11.8486V13.4136H110.335C111.056 13.4136 111.401 13.1361 111.401 12.6248C111.401 12.1536 111.101 11.8486 110.467 11.8486H109.152ZM109.152 14.2898V16.0598H110.567C111.272 16.0598 111.65 15.7473 111.65 15.1761C111.65 14.5711 111.222 14.2886 110.419 14.2886H109.152V14.2898Z" fill="white"/>
</svg>
