<svg width="160" height="50" viewBox="0 0 160 50" fill="none" xmlns="http://www.w3.org/2000/svg">
<path fill-rule="evenodd" clip-rule="evenodd" d="M6.40997 0H153.59C155.819 0 156.627 0.2325 157.442 0.6675C158.257 1.10375 158.896 1.7425 159.332 2.5575C159.767 3.3725 160 4.18125 160 6.41V43.59C160 45.8188 159.767 46.6275 159.332 47.4425C158.906 48.2477 158.248 48.9062 157.442 49.3325C156.627 49.7675 155.819 50 153.59 50H6.40997C4.18122 50 3.37247 49.7675 2.55747 49.3325C1.75223 48.9062 1.09373 48.2477 0.667469 47.4425C0.232469 46.6275 -3.05176e-05 45.8188 -3.05176e-05 43.59V6.41C-3.05176e-05 4.18125 0.232469 3.3725 0.667469 2.5575C1.09373 1.75226 1.75223 1.09376 2.55747 0.6675C3.37247 0.2325 4.18122 0 6.40997 0Z" fill="black"/>
<path fill-rule="evenodd" clip-rule="evenodd" d="M80.272 27.1089C82.9845 27.1089 85.1958 29.1714 85.1958 32.0139C85.1958 34.8376 82.9845 36.9189 80.272 36.9189C77.5595 36.9189 75.3483 34.8376 75.3483 32.0139C75.3483 29.1701 77.5595 27.1089 80.272 27.1089ZM80.272 34.9864C81.7583 34.9864 83.0408 33.7614 83.0395 32.0139C83.0395 30.2489 81.7583 29.0414 80.272 29.0414C78.7858 29.0414 77.5033 30.2489 77.5033 32.0139C77.5033 33.7601 78.7858 34.9864 80.272 34.9864ZM69.5333 27.1089C72.2458 27.1089 74.4558 29.1714 74.457 32.0139C74.457 34.8376 72.2458 36.9189 69.5333 36.9189C66.8208 36.9189 64.6095 34.8376 64.6095 32.0139C64.6095 29.1701 66.8208 27.1089 69.5333 27.1089ZM69.5333 34.9864C71.0195 34.9864 72.3008 33.7614 72.3008 32.0139C72.3008 30.2489 71.0195 29.0414 69.5333 29.0414C68.047 29.0414 66.7645 30.2489 66.7645 32.0139C66.7645 33.7601 68.047 34.9864 69.5333 34.9864ZM56.7558 28.6151H56.7545H63.7608C63.8358 28.9864 63.872 29.4326 63.872 29.9151C63.872 31.4764 63.4445 33.4089 62.0695 34.7839C60.732 36.1776 59.0233 36.9201 56.757 36.9201C52.5583 36.9201 49.0283 33.5014 49.0283 29.3026C49.0283 25.1026 52.5583 21.6851 56.757 21.6851C59.0783 21.6851 60.732 22.5964 61.977 23.7851L60.5095 25.2526C59.617 24.4151 58.4095 23.7651 56.7558 23.7651C53.6908 23.7651 51.2945 26.2376 51.2945 29.3026C51.2945 32.3676 53.6908 34.8389 56.7558 34.8389C58.7445 34.8389 59.8783 34.0389 60.602 33.3164C61.197 32.7214 61.587 31.8664 61.7358 30.6964H56.7558V28.6151ZM109.006 30.2314L109.228 30.7889L102.67 33.5014C103.171 34.4851 103.95 34.9876 105.047 34.9876C106.143 34.9876 106.905 34.4501 107.462 33.6326L109.135 34.7476C108.596 35.5464 107.297 36.9214 105.048 36.9214C102.262 36.9214 100.181 34.7651 100.181 32.0164C100.181 29.1001 102.28 27.1114 104.807 27.1114C107.352 27.1114 108.597 29.1364 109.006 30.2314ZM102.318 31.8664L106.703 30.0451C106.461 29.4326 105.737 29.0051 104.882 29.0051C103.786 29.0051 102.262 29.9701 102.318 31.8664ZM96.9858 36.6226V22.2051H99.142V36.6226H96.9858ZM93.4558 28.2064H93.4545V27.4089H95.4983V36.2164C95.4983 39.8389 93.362 41.3251 90.8345 41.3251C88.457 41.3251 87.027 39.7276 86.4883 38.4251L88.3645 37.6464C88.6995 38.4451 89.517 39.3926 90.8358 39.3926C92.4533 39.3926 93.4558 38.3889 93.4558 36.5126V35.8064H93.3808C92.8995 36.4014 91.9695 36.9214 90.7995 36.9214C88.3483 36.9214 86.0995 34.7839 86.0995 32.0339C86.0995 29.2676 88.347 27.1114 90.7995 27.1114C91.9695 27.1114 92.897 27.6301 93.3808 28.2064H93.4558ZM90.9845 34.9864C92.452 34.9864 93.6045 33.7426 93.6045 32.0314C93.6045 30.3026 92.452 29.0401 90.9845 29.0401C89.4983 29.0401 88.2533 30.3026 88.2533 32.0314C88.2533 33.7414 89.4983 34.9864 90.9845 34.9864ZM119.102 22.2051C121.487 22.2051 123.831 23.9326 123.831 26.6826C123.831 29.4326 121.487 31.1601 119.102 31.1601H116.097V36.6214H113.946V22.2051H119.102ZM119.157 29.1539C120.766 29.1539 121.68 27.8001 121.68 26.6839C121.68 25.5439 120.766 24.2126 119.157 24.2126H116.097V29.1539H119.157ZM132.456 27.0839C134.922 27.0839 136.832 28.5114 136.835 31.0714V36.5989H134.757V35.4864H134.682C134.182 36.2451 133.385 36.8951 131.937 36.8951C130.046 36.8951 128.358 35.6526 128.358 33.7239C128.358 31.6101 130.453 30.4776 132.512 30.4776C133.533 30.4776 134.367 30.8126 134.757 31.0351V30.8851C134.74 29.6976 133.607 29.0314 132.495 29.0314C131.697 29.0314 130.936 29.2914 130.528 30.0889L128.617 29.2914C129.285 27.7701 130.897 27.0839 132.456 27.0839ZM132.196 34.9839C133.438 34.9839 134.587 34.0376 134.756 32.7026C134.181 32.4239 133.736 32.2201 132.79 32.2201C131.732 32.2201 130.508 32.6476 130.508 33.7601C130.508 34.6314 131.491 34.9839 132.196 34.9839ZM144.4 27.3989H146.791L140.875 40.9939H138.63L140.818 36.1339L136.98 27.3989H139.298L141.858 33.6489H141.933L144.4 27.3989ZM125.018 36.6226V22.2051H127.17V36.6226H125.018ZM50.2645 18.4851H49.4133V16.1676H50.0895C50.6883 15.6514 50.9808 14.7701 50.9683 13.5201V10.0989H55.5883V16.1676H56.3608V18.4864H55.512V17.0189H50.2633V18.4864H50.2645V18.4851ZM51.8595 13.5189C51.8733 14.6126 51.6533 15.4964 51.2033 16.1664H54.7008V10.9476H51.8595V13.5189ZM63.2958 16.1239C62.6145 16.8226 61.7695 17.1726 60.7583 17.1726C59.747 17.1726 58.9008 16.8226 58.2208 16.1226C57.5408 15.4251 57.2008 14.5701 57.2008 13.5589C57.2008 12.5464 57.5395 11.6926 58.2208 10.9939C58.8995 10.2939 59.7458 9.94388 60.7583 9.94388C61.7633 9.94388 62.607 10.2964 63.2908 10.9989C63.9733 11.6989 64.3145 12.5539 64.3145 13.5601C64.3158 14.5701 63.9758 15.4251 63.2958 16.1226V16.1239ZM58.8795 15.5439C59.392 16.0626 60.0183 16.3214 60.7595 16.3214C61.1096 16.3285 61.4573 16.2631 61.7809 16.1293C62.1044 15.9955 62.3968 15.7962 62.6395 15.5439C63.1508 15.0251 63.4083 14.3626 63.4083 13.5564C63.4083 12.7514 63.1508 12.0901 62.6395 11.5714C62.3967 11.3192 62.1043 11.12 61.7808 10.9862C61.4573 10.8524 61.1096 10.7869 60.7595 10.7939C60.0183 10.7939 59.3933 11.0526 58.8795 11.5714C58.367 12.0901 58.112 12.7526 58.112 13.5576C58.112 14.3626 58.367 15.0251 58.8795 15.5439ZM68.7908 17.1714C67.7733 17.1714 66.9195 16.8264 66.2295 16.1376C65.5395 15.4489 65.1958 14.5876 65.1958 13.5576C65.1958 12.5264 65.5383 11.6664 66.2295 10.9776C66.9183 10.2889 67.772 9.94263 68.7908 9.94263C69.8345 9.94263 70.682 10.3176 71.332 11.0726L70.7133 11.6714C70.2433 11.0839 69.602 10.7926 68.7908 10.7926C68.0358 10.7926 67.3995 11.0476 66.882 11.5551C66.3633 12.0651 66.1045 12.7301 66.1045 13.5551C66.1045 14.3801 66.3633 15.0489 66.882 15.5551C67.3995 16.0651 68.037 16.3201 68.7908 16.3201C69.622 16.3201 70.3308 15.9851 70.917 15.3164L71.5358 15.9351C71.2117 16.3213 70.8051 16.6297 70.3458 16.8376C69.8584 17.0622 69.3274 17.1762 68.7908 17.1714ZM75.1308 17.0176H74.2408V10.9489H72.3083V10.0976H77.0633V10.9476H75.1308V17.0176ZM83.1683 10.0976L80.5495 15.9351C80.1883 16.7589 79.6508 17.1714 78.937 17.1714C78.7245 17.1714 78.4958 17.1214 78.2495 17.0164L78.482 16.1951C78.6308 16.2789 78.7845 16.3201 78.9458 16.3201C79.152 16.3201 79.312 16.2814 79.4233 16.1989C79.5358 16.1176 79.6408 15.9714 79.737 15.7589L79.9883 15.2076L77.6595 10.0951H78.7033L80.4133 14.0689H80.4508L82.122 10.0964H83.1683V10.0976ZM84.1745 17.0176V10.0989H89.1808V17.0176H88.2908V10.9489H85.0633V17.0176H84.1745ZM90.7658 17.0176V10.0989H91.6545V13.0651H95.1133V10.0989H96.0033V17.0176H95.1133V13.8951H91.6545V17.0176H90.7658ZM103.246 16.1239C102.566 16.8226 101.72 17.1726 100.71 17.1726C99.6983 17.1726 98.852 16.8226 98.1745 16.1226C97.4933 15.4251 97.1545 14.5701 97.1545 13.5589C97.1545 12.5464 97.4933 11.6926 98.1745 10.9939C98.8533 10.2939 99.6983 9.94388 100.71 9.94388C101.715 9.94388 102.558 10.2964 103.242 10.9989C103.925 11.6989 104.266 12.5539 104.266 13.5601C104.266 14.5701 103.926 15.4251 103.246 16.1226V16.1239ZM98.8295 15.5439C99.342 16.0626 99.9683 16.3214 100.71 16.3214C101.06 16.3285 101.407 16.2631 101.731 16.1293C102.054 15.9955 102.347 15.7962 102.59 15.5439C103.102 15.0251 103.358 14.3626 103.358 13.5564C103.358 12.7514 103.101 12.0901 102.59 11.5714C102.347 11.3192 102.054 11.12 101.731 10.9862C101.407 10.8524 101.06 10.7869 100.71 10.7939C99.9683 10.7939 99.342 11.0526 98.8295 11.5714C98.317 12.0901 98.062 12.7526 98.062 13.5576C98.062 14.3626 98.3183 15.0251 98.8295 15.5439ZM107.901 17.0176V10.0989H110.402C110.943 10.0989 111.412 10.2776 111.808 10.6351C112.205 10.9939 112.403 11.4426 112.403 11.9839C112.403 12.3126 112.317 12.6026 112.146 12.8539C111.976 13.1045 111.74 13.3025 111.463 13.4251V13.4626C111.805 13.5776 112.085 13.7789 112.305 14.0614C112.522 14.3451 112.633 14.6739 112.633 15.0476C112.633 15.6139 112.425 16.0851 112.01 16.4576C111.608 16.826 111.081 17.0269 110.536 17.0189H107.901V17.0176ZM108.79 13.0651H110.405C110.741 13.0651 111.01 12.9551 111.212 12.7314C111.403 12.5362 111.512 12.2747 111.516 12.0014C111.514 11.7308 111.408 11.4713 111.221 11.2764C111.123 11.1681 111.003 11.0826 110.869 11.026C110.734 10.9694 110.589 10.9431 110.443 10.9489H108.79V13.0651ZM108.79 16.1676H110.578C110.735 16.1727 110.89 16.1432 111.034 16.0812C111.178 16.0192 111.306 15.9262 111.41 15.8089C111.612 15.5976 111.726 15.3174 111.728 15.0251C111.724 14.733 111.606 14.454 111.4 14.2476C111.29 14.1307 111.156 14.0388 111.008 13.978C110.859 13.9171 110.7 13.8889 110.54 13.8951H108.79V16.1676Z" fill="white"/>
<path d="M13.7342 10.7161C13.3992 11.0711 13.1992 11.6211 13.1992 12.3361V37.8399C13.1992 38.5536 13.3979 39.1049 13.7342 39.4599L13.8204 39.5424L28.1079 25.2549V24.9186L13.8204 10.6311L13.7342 10.7161Z" fill="url(#paint0_linear_420_4044)"/>
<path d="M32.8667 30.0225L28.1054 25.2575V24.92L32.8679 20.1575L32.9754 20.2187L38.6167 23.425C40.2279 24.34 40.2279 25.84 38.6167 26.755L32.9754 29.9625L32.8667 30.0225Z" fill="url(#paint1_linear_420_4044)"/>
<path d="M32.9752 29.9613L28.1039 25.0901L13.7314 39.4613C14.2627 40.0238 15.1389 40.0926 16.1277 39.5313L32.9752 29.9613Z" fill="url(#paint2_linear_420_4044)"/>
<path d="M32.9752 20.2188L16.1277 10.6463C15.1389 10.0851 14.2627 10.1538 13.7314 10.7163L28.1027 25.0876L32.9752 20.2188Z" fill="url(#paint3_linear_420_4044)"/>
<path opacity="0.2" d="M32.8683 29.8535L16.1296 39.3623C15.1933 39.8935 14.3558 39.8585 13.8196 39.3748L13.7333 39.461L13.8196 39.5435C14.3571 40.0273 15.1933 40.0635 16.1296 39.531L32.9771 29.9585L32.8683 29.8523V29.8535Z" fill="black"/>
<path opacity="0.12" d="M13.7342 39.2948C13.3992 38.9411 13.1992 38.3898 13.1992 37.6748V37.8436C13.1992 38.5561 13.3979 39.1086 13.7342 39.4636L13.8204 39.3761L13.7342 39.2948Z" fill="black"/>
<path opacity="0.12" d="M38.6192 26.5876L32.8692 29.8538L32.9767 29.9613L38.618 26.7551C39.4242 26.2963 39.828 25.6926 39.828 25.0901C39.7592 25.6363 39.3505 26.1726 38.6192 26.5876Z" fill="black"/>
<path opacity="0.25" d="M16.1304 10.8165L38.6192 23.594C39.3504 24.009 39.7592 24.544 39.8279 25.0902C39.8279 24.4865 39.4254 23.8827 38.6192 23.4252L16.1304 10.6477C14.5192 9.73275 13.1992 10.4927 13.1992 12.3377V12.5065C13.1992 10.6615 14.5179 9.9015 16.1304 10.8165Z" fill="white"/>
<defs>
<linearGradient id="paint0_linear_420_4044" x1="22.2981" y1="12.068" x2="10.0481" y2="24.3179" gradientUnits="userSpaceOnUse">
<stop stop-color="#00A0FF"/>
<stop offset="0.0066" stop-color="#00A1FF"/>
<stop offset="0.2601" stop-color="#00BEFF"/>
<stop offset="0.5122" stop-color="#00D2FF"/>
<stop offset="0.7604" stop-color="#00DFFF"/>
<stop offset="1" stop-color="#00E3FF"/>
</linearGradient>
<linearGradient id="paint1_linear_420_4044" x1="40.7166" y1="25.0906" x2="12.8127" y2="25.0906" gradientUnits="userSpaceOnUse">
<stop stop-color="#FFE000"/>
<stop offset="0.4087" stop-color="#FFBD00"/>
<stop offset="0.7754" stop-color="#FFA500"/>
<stop offset="1" stop-color="#FF9C00"/>
</linearGradient>
<linearGradient id="paint2_linear_420_4044" x1="30.3288" y1="29.6731" x2="9.41371" y2="50.5879" gradientUnits="userSpaceOnUse">
<stop stop-color="#FF3A44"/>
<stop offset="1" stop-color="#C31162"/>
</linearGradient>
<linearGradient id="paint3_linear_420_4044" x1="10.1134" y1="8.50118" x2="19.4528" y2="17.8406" gradientUnits="userSpaceOnUse">
<stop stop-color="#32A071"/>
<stop offset="0.0685" stop-color="#2DA771"/>
<stop offset="0.4762" stop-color="#15CF74"/>
<stop offset="0.8009" stop-color="#06E775"/>
<stop offset="1" stop-color="#00F076"/>
</linearGradient>
</defs>
</svg>
